<ttFont>
        <CharString name=".notdef">
          -20 0 70 372 70 hstem
          56 60 280 60 vstem
          56 hmoveto
          400 512 -400 hlineto
          60 -70 rmoveto
          280 -372 -280 hlineto
          endchar
        </CharString>
        <CharString name=".null">
          -532 endchar
        </CharString>
        <CharString name="A">
          76 21 -21 318 88 206 88 hstem
          60 89 295 94 vstem
          149 hmoveto
          256 vlineto
          45 39 43 17 78 hhcurveto
          91 88 -91 hlineto
          -79 -46 -22 -37 -35 hvcurveto
          85 vlineto
          133 70 47 90 vhcurveto
          135 -612 94 700 -229 hlineto
          -151 -98 -120 -140 hvcurveto
          -440 vlineto
          endchar
        </CharString>
        <CharString name="AE">
          356 0 88 214 88 -72 88 206 88 hstemhm
          60 89 295 90 hintmask 10111100
          149 hmoveto
          hintmask 11011100
          240 vlineto
          45 39 43 17 78 hhcurveto
          101 88 -101 hlineto
          -79 -46 -22 -37 -35 hvcurveto
          101 vlineto
          133 70 47 90 vhcurveto
          135 -612 394 88 -304 hlineto
          hintmask 10111100
          230 231 88 -231 114 vlineto
          80 66 12 44 vhcurveto
          194 88 -198 hlineto
          -43 -34 -10 -25 -29 hvcurveto
          35 -225 vlineto
          -151 -98 -120 -140 hvcurveto
          -440 vlineto
          endchar
        </CharString>
        <CharString name="Aacute">
          76 21 -21 318 88 206 88 hstem
          60 89 295 94 vstem
          149 hmoveto
          256 vlineto
          45 39 43 17 78 hhcurveto
          91 88 -91 hlineto
          -79 -46 -22 -37 -35 hvcurveto
          85 vlineto
          133 70 47 90 vhcurveto
          135 -612 94 700 -229 hlineto
          -151 -98 -120 -140 hvcurveto
          -440 vlineto
          266 745 rmoveto
          128 128 -62 62 -118 -148 rlineto
          endchar
        </CharString>
        <CharString name="Acircumflex">
          76 21 -21 318 88 206 88 78 142 hstem
          60 89 295 94 vstem
          149 hmoveto
          256 vlineto
          45 39 43 17 78 hhcurveto
          91 88 -91 hlineto
          -79 -46 -22 -37 -35 hvcurveto
          85 vlineto
          133 70 47 90 vhcurveto
          135 -612 94 700 -229 hlineto
          -151 -98 -120 -140 hvcurveto
          -440 vlineto
          263 872 rmoveto
          80 -94 rlineto
          81 hlineto
          -110 142 rlineto
          -101 hlineto
          -110 -142 rlineto
          81 hlineto
          endchar
        </CharString>
        <CharString name="Adieresis">
          76 21 -21 318 88 206 88 88 112 hstemhm
          60 89 59 112 68 112 -56 94 hintmask 11111101
          149 hmoveto
          256 vlineto
          45 39 43 17 78 hhcurveto
          91 88 -91 hlineto
          -79 -46 -22 -37 -35 hvcurveto
          85 vlineto
          133 70 47 90 vhcurveto
          135 -612 94 700 -229 hlineto
          -151 -98 -120 -140 hvcurveto
          -440 vlineto
          148 844 rmoveto
          -32 24 -24 32 32 24 24 32 32 -24 24 -32 -32 -24 -24 -32 vhcurveto
          hintmask 11111110
          180 hmoveto
          -32 24 -24 32 32 24 24 32 32 -24 24 -32 -32 -24 -24 -32 vhcurveto
          endchar
        </CharString>
        <CharString name="Agrave">
          76 21 -21 318 88 206 88 hstem
          60 89 295 94 vstem
          149 hmoveto
          256 vlineto
          45 39 43 17 78 hhcurveto
          91 88 -91 hlineto
          -79 -46 -22 -37 -35 hvcurveto
          85 vlineto
          133 70 47 90 vhcurveto
          135 -612 94 700 -229 hlineto
          -151 -98 -120 -140 hvcurveto
          -440 vlineto
          344 787 rmoveto
          -118 148 -62 -62 128 -128 rlineto
          endchar
        </CharString>
        <CharString name="Aring">
          76 21 -21 318 88 206 88 46 50 95 51 hstemhm
          60 89 87 50 95 51 12 94 hintmask 1111111010000000
          149 hmoveto
          256 vlineto
          45 39 43 17 78 hhcurveto
          91 88 -91 hlineto
          -79 -46 -22 -37 -35 hvcurveto
          85 vlineto
          133 70 47 90 vhcurveto
          135 -612 94 700 -229 hlineto
          -151 -98 -120 -140 hvcurveto
          -440 vlineto
          176 844 rmoveto
          -56 42 -42 56 vhcurveto
          hintmask 1111111110000000
          56 42 42 56 56 -42 42 -56 hvcurveto
          hintmask 1111111010000000
          -56 -42 -42 -56 hvcurveto
          50 hmoveto
          27 21 20 27 vhcurveto
          hintmask 1111111110000000
          27 20 -20 -27 -27 -20 -21 -27 hvcurveto
          hintmask 1111111010000000
          -27 -21 21 27 hvcurveto
          endchar
        </CharString>
        <CharString name="Atilde">
          76 21 -21 318 88 206 88 81 68 -28 68 hstemhm
          60 89 295 94 -84 51 hintmask 11110110
          149 hmoveto
          256 vlineto
          45 39 43 17 78 hhcurveto
          91 88 -91 hlineto
          -79 -46 -22 -37 -35 hvcurveto
          85 vlineto
          133 70 47 90 vhcurveto
          135 -612 94 700 -229 hlineto
          -151 -98 -120 -140 hvcurveto
          -440 vlineto
          hintmask 11110101
          394 896 rmoveto
          -24 -19 -23 -30 -25 -26 12 9 -21 vhcurveto
          hintmask 11101110
          12 -32 -22 7 -27 hhcurveto
          -76 -26 -65 -50 -3 hvcurveto
          51 hlineto
          31 5 19 16 24 hhcurveto
          16 17 -7 -9 25 hvcurveto
          hintmask 11110101
          -9 19 49 -15 25 hhcurveto
          58 47 51 64 3 hvcurveto
          endchar
        </CharString>
        <CharString name="B">
          61 0 88 230 83 221 88 hstemhm
          65 93 261 94 -62 97 hintmask 11110100
          158 hmoveto
          475 vlineto
          100 60 47 76 vhcurveto
          hintmask 11111000
          96 29 -56 -56 -69 -63 -40 -68 hvcurveto
          -64 -83 99 hlineto
          hintmask 11110100
          76 52 -38 -74 -84 -42 -34 -91 hvcurveto
          -124 -88 125 hlineto
          167 62 77 117 91 -43 63 -86 25 hvcurveto
          4 vlineto
          hintmask 11111000
          62 29 32 46 70 vvcurveto
          95 -63 93 -154 -128 -103 -93 -140 vhcurveto
          -477 vlineto
          endchar
        </CharString>
        <CharString name="C">
          -7 0 88 524 88 hstem
          60 101 vstem
          60 350 rmoveto
          -223 2 129 -127 214 hhcurveto
          65 88 -77 hlineto
          -154 -76 116 146 -2 hvcurveto
          146 2 76 116 154 hhcurveto
          77 88 -65 hlineto
          -214 -129 -127 -223 -2 hvcurveto
          endchar
        </CharString>
        <CharString name="Ccedilla">
          14 -228 49 86 40 53 88 524 88 hstem
          60 101 250 80 vstem
          321 -101 rmoveto
          7 16 15 1 9 hhcurveto
          34 16 -22 -20 -17 -9 -27 -49 -16 -22 2 14 -32 hvcurveto
          -19 -41 rlineto
          -21 49 37 -3 18 hhcurveto
          80 43 44 53 30 -13 48 -75 -11 -10 -1 -2 -11 hvcurveto
          24 56 rlineto
          10 hlineto
          65 88 -77 hlineto
          -154 -76 116 146 -2 hvcurveto
          146 2 76 116 154 hhcurveto
          77 88 -65 hlineto
          -214 -129 -127 -223 -2 hvcurveto
          2 -198 101 -122 173 -25 -34 -85 rcurveline
          endchar
        </CharString>
        <CharString name="D">
          79 0 88 524 88 hstem
          70 94 286 101 vstem
          551 350 rmoveto
          223 -2 -129 127 -214 hhcurveto
          -136 -700 136 hlineto
          214 129 127 223 2 hvcurveto
          -333 -262 rmoveto
          -54 524 54 hlineto
          154 76 -116 -146 2 hvcurveto
          -146 -2 -76 -116 -154 hhcurveto
          endchar
        </CharString>
        <CharString name="E">
          -24 0 88 230 88 206 88 hstem
          65 94 vstem
          463 hmoveto
          88 -304 230 231 88 -231 114 vlineto
          80 66 12 44 vhcurveto
          194 88 -181 hlineto
          -62 -60 -3 -45 -48 hvcurveto
          -23 -22 -24 -37 -60 vvcurveto
          -533 vlineto
          endchar
        </CharString>
        <CharString name="Eacute">
          -24 0 88 230 88 206 88 hstem
          65 94 vstem
          463 hmoveto
          88 -304 230 231 88 -231 114 vlineto
          80 66 12 44 vhcurveto
          194 88 -181 hlineto
          -62 -60 -3 -45 -48 hvcurveto
          -23 -22 -24 -37 -60 vvcurveto
          -533 vlineto
          239 745 rmoveto
          128 128 -62 62 -118 -148 rlineto
          endchar
        </CharString>
        <CharString name="Ecircumflex">
          -24 0 88 230 88 206 88 78 142 hstem
          65 94 vstem
          463 hmoveto
          88 -304 230 231 88 -231 114 vlineto
          80 66 12 44 vhcurveto
          194 88 -181 hlineto
          -62 -60 -3 -45 -48 hvcurveto
          -23 -22 -24 -37 -60 vvcurveto
          -533 vlineto
          237 872 rmoveto
          80 -94 rlineto
          81 hlineto
          -110 142 rlineto
          -101 hlineto
          -110 -142 rlineto
          81 hlineto
          endchar
        </CharString>
        <CharString name="Edieresis">
          -24 0 88 230 88 206 88 88 112 hstemhm
          65 94 -13 112 68 112 hintmask 11101000
          463 hmoveto
          88 -304 230 231 88 -231 114 vlineto
          80 66 12 44 vhcurveto
          194 88 -181 hlineto
          -62 -60 -3 -45 -48 hvcurveto
          -23 -22 -24 -37 -60 vvcurveto
          -533 vlineto
          hintmask 11110110
          81 844 rmoveto
          -32 24 -24 32 32 24 24 32 32 -24 24 -32 -32 -24 -24 -32 vhcurveto
          180 hmoveto
          -32 24 -24 32 32 24 24 32 32 -24 24 -32 -32 -24 -24 -32 vhcurveto
          endchar
        </CharString>
        <CharString name="Egrave">
          -24 0 88 230 88 206 88 hstem
          65 94 vstem
          463 hmoveto
          88 -304 230 231 88 -231 114 vlineto
          80 66 12 44 vhcurveto
          194 88 -181 hlineto
          -62 -60 -3 -45 -48 hvcurveto
          -23 -22 -24 -37 -60 vvcurveto
          -533 vlineto
          287 787 rmoveto
          -118 148 -62 -62 128 -128 rlineto
          endchar
        </CharString>
        <CharString name="Eth">
          79 0 88 230 88 206 88 hstem
          70 94 286 101 vstem
          70 700 rmoveto
          -294 -76 -88 76 -318 136 vlineto
          193 152 140 214 261 -175 85 -181 hvcurveto
          -31 -88 rmoveto
          34 hlineto
          158 94 -93 -163 -177 -113 -91 -119 hvcurveto
          -54 230 134 88 -134 hlineto
          endchar
        </CharString>
        <CharString name="Euro">
          3 0 88 165 78 50 78 153 88 hstem
          80 101 vstem
          80 350 rmoveto
          -19 -90 -78 100 vlineto
          -163 34 120 -90 181 hhcurveto
          65 88 -77 hlineto
          -118 -72 68 97 -28 hvcurveto
          205 78 -218 hlineto
          -1 6 0 6 7 vvcurveto
          10 0 11 1 10 vhcurveto
          238 78 -222 hlineto
          91 31 71 62 113 hhcurveto
          77 88 -65 hlineto
          -176 -119 -86 -155 -38 hvcurveto
          -82 -78 71 hlineto
          -1 -10 0 -11 -10 vvcurveto
          endchar
        </CharString>
        <CharString name="F">
          -124 21 -21 298 88 226 88 hstem
          65 94 vstem
          159 520 rmoveto
          80 66 12 44 vhcurveto
          119 88 -106 hlineto
          -62 -60 -3 -45 -48 hvcurveto
          -23 -22 -24 -37 -60 vvcurveto
          -533 94 298 186 88 -186 vlineto
          endchar
        </CharString>
        <CharString name="G">
          82 0 88 210 88 226 88 hstem
          60 101 304 94 vstem
          393 88 rmoveto
          -154 -76 116 146 -2 hvcurveto
          146 2 76 116 154 hhcurveto
          127 88 -115 hlineto
          -214 -129 -127 -223 -2 hvcurveto
          -223 2 129 -127 214 hhcurveto
          154 386 -197 -88 103 -210 hlineto
          endchar
        </CharString>
        <CharString name="H">
          100 21 -21 318 88 294 -20 hstem
          70 94 304 94 vstem
          164 hmoveto
          318 304 -318 94 700 -94 -294 -304 294 -94 -700 vlineto
          endchar
        </CharString>
        <CharString name="I">
          -298 21 -21 700 -20 hstem
          70 94 vstem
          164 hmoveto
          700 -94 -700 vlineto
          endchar
        </CharString>
        <CharString name="Iacute">
          -298 21 -21 700 -20 hstem
          70 94 vstem
          164 hmoveto
          700 -94 -700 vlineto
          49 745 rmoveto
          128 128 -62 62 -118 -148 rlineto
          endchar
        </CharString>
        <CharString name="Icircumflex">
          -298 21 -21 700 -20 98 142 hstem
          70 94 vstem
          164 hmoveto
          700 -94 -700 vlineto
          47 872 rmoveto
          80 -94 rlineto
          81 hlineto
          -110 142 rlineto
          -101 hlineto
          -110 -142 rlineto
          81 hlineto
          endchar
        </CharString>
        <CharString name="Idieresis">
          -298 21 -21 700 -20 108 112 hstemhm
          -29 112 -13 94 -13 112 hintmask 11101000
          164 hmoveto
          700 -94 -700 vlineto
          hintmask 11110100
          -99 844 rmoveto
          -32 24 -24 32 32 24 24 32 32 -24 24 -32 -32 -24 -24 -32 vhcurveto
          180 hmoveto
          -32 24 -24 32 32 24 24 32 32 -24 24 -32 -32 -24 -24 -32 vhcurveto
          endchar
        </CharString>
        <CharString name="Igrave">
          -298 21 -21 700 -20 hstem
          70 94 vstem
          164 hmoveto
          700 -94 -700 vlineto
          107 787 rmoveto
          -118 148 -62 -62 128 -128 rlineto
          endchar
        </CharString>
        <CharString name="J">
          -149 0 88 524 88 hstem
          224 94 vstem
          224 180 rmoveto
          -80 -66 -12 -44 vhcurveto
          -79 -88 66 hlineto
          62 60 3 45 48 hvcurveto
          23 22 24 37 60 vvcurveto
          533 -280 -88 186 vlineto
          endchar
        </CharString>
        <CharString name="K">
          16 21 -21 332 83 285 -20 hstem
          70 94 238 96 vstem
          498 125 rmoveto
          142 -54 83 -107 39 vhcurveto
          158 311 rlineto
          -102 hlineto
          -141 -289 -33 5 -16 -2 -39 1 rlinecurve
          285 -94 -700 94 332 vlineto
          191 -2 47 -59 -146 vvcurveto
          -125 96 vlineto
          endchar
        </CharString>
        <CharString name="L">
          -50 0 88 612 -20 hstem
          70 94 vstem
          457 88 rmoveto
          -171 hlineto
          -43 -46 14 47 -20 hvcurveto
          -12 30 -1 37 24 vvcurveto
          460 -94 -462 vlineto
          -64 3 -78 56 -51 vhcurveto
          -45 51 72 0 59 hhcurveto
          146 hlineto
          endchar
        </CharString>
        <CharString name="M">
          264 21 -21 74 143 483 -20 hstem
          70 94 468 94 vstem
          395 217 rmoveto
          -82 309 rlineto
          134 -36 -64 40 -143 hhcurveto
          -700 94 594 vlineto
          37 -15 12 -26 15 -50 126 -429 rcurveline
          88 hlineto
          125 429 15 50 13 26 37 15 rlinecurve
          -594 94 700 vlineto
          -143 -64 -38 -136 -36 hvcurveto
          -82 -309 rlineto
          endchar
        </CharString>
        <CharString name="N">
          96 21 -21 612 88 hstem
          70 94 305 94 vstem
          164 hmoveto
          612 154 vlineto
          82 69 -33 -96 hvcurveto
          -483 94 470 vlineto
          161 -83 69 -163 vhcurveto
          -247 -700 hlineto
          endchar
        </CharString>
        <CharString name="Ntilde">
          91 21 -21 612 88 81 68 -28 68 hstemhm
          65 94 270 51 -16 94 hintmask 11101010
          159 hmoveto
          612 154 vlineto
          82 69 -33 -96 hvcurveto
          -483 94 470 vlineto
          161 -83 69 -163 vhcurveto
          -247 -700 hlineto
          hintmask 11101100
          364 896 rmoveto
          -24 -19 -23 -30 -25 -26 12 9 -21 vhcurveto
          hintmask 11011010
          12 -32 -22 7 -27 hhcurveto
          -76 -26 -65 -50 -3 hvcurveto
          51 hlineto
          31 5 19 16 24 hhcurveto
          16 17 -7 -9 25 hvcurveto
          hintmask 11101100
          -9 19 49 -15 25 hhcurveto
          58 47 51 64 3 hvcurveto
          endchar
        </CharString>
        <CharString name="O">
          246 -10 88 544 88 hstem
          60 101 456 101 vstem
          389 78 rmoveto
          -148 -78 123 146 -2 hvcurveto
          146 2 78 129 148 hhcurveto
          148 78 -129 -146 2 hvcurveto
          -146 -2 -78 -123 -148 hhcurveto
          -88 vmoveto
          196 131 134 223 2 hvcurveto
          223 -2 -131 140 -196 hhcurveto
          -196 -131 -140 -223 -2 hvcurveto
          -223 2 131 -134 196 hhcurveto
          endchar
        </CharString>
        <CharString name="OE">
          566 -10 88 -78 88 230 88 206 88 -78 88 hstemhm
          83 101 456 94 hintmask 01110110
          1038 hmoveto
          88 -304 230 231 88 -231 114 vlineto
          80 66 12 44 vhcurveto
          194 88 -181 hlineto
          -62 -60 -3 -45 -48 hvcurveto
          -13 -12 -13 -17 -9 -23 rrcurveto
          hintmask 10101110
          70 -55 -82 40 -103 hhcurveto
          -196 -131 -140 -223 -2 hvcurveto
          -223 2 131 -134 196 hhcurveto
          96 78 32 60 54 hvcurveto
          hintmask 01110110
          -82 vlineto
          hintmask 10101110
          -228 78 rmoveto
          -148 -78 123 146 -2 hvcurveto
          146 2 78 129 148 hhcurveto
          148 78 -129 -146 2 hvcurveto
          -146 -2 -78 -123 -148 hhcurveto
          endchar
        </CharString>
        <CharString name="Oacute">
          246 -10 88 544 88 hstem
          60 101 456 101 vstem
          389 78 rmoveto
          -148 -78 123 146 -2 hvcurveto
          146 2 78 129 148 hhcurveto
          148 78 -129 -146 2 hvcurveto
          -146 -2 -78 -123 -148 hhcurveto
          -88 vmoveto
          196 131 134 223 2 hvcurveto
          223 -2 -131 140 -196 hhcurveto
          -196 -131 -140 -223 -2 hvcurveto
          -223 2 131 -134 196 hhcurveto
          -8 755 rmoveto
          128 128 -62 62 -118 -148 rlineto
          endchar
        </CharString>
        <CharString name="Ocircumflex">
          246 -10 88 544 88 68 142 hstem
          60 101 456 101 vstem
          389 78 rmoveto
          -148 -78 123 146 -2 hvcurveto
          146 2 78 129 148 hhcurveto
          148 78 -129 -146 2 hvcurveto
          -146 -2 -78 -123 -148 hhcurveto
          -88 vmoveto
          196 131 134 223 2 hvcurveto
          223 -2 -131 140 -196 hhcurveto
          -196 -131 -140 -223 -2 hvcurveto
          -223 2 131 -134 196 hhcurveto
          -1 882 rmoveto
          80 -94 rlineto
          81 hlineto
          -110 142 rlineto
          -101 hlineto
          -110 -142 rlineto
          81 hlineto
          endchar
        </CharString>
        <CharString name="Odieresis">
          246 -10 88 544 88 78 112 hstem
          60 101 82 112 68 112 82 101 vstem
          389 78 rmoveto
          -148 -78 123 146 -2 hvcurveto
          146 2 78 129 148 hhcurveto
          148 78 -129 -146 2 hvcurveto
          -146 -2 -78 -123 -148 hhcurveto
          -88 vmoveto
          196 131 134 223 2 hvcurveto
          223 -2 -131 140 -196 hhcurveto
          -196 -131 -140 -223 -2 hvcurveto
          -223 2 131 -134 196 hhcurveto
          -146 854 rmoveto
          -32 24 -24 32 32 24 24 32 32 -24 24 -32 -32 -24 -24 -32 vhcurveto
          180 hmoveto
          -32 24 -24 32 32 24 24 32 32 -24 24 -32 -32 -24 -24 -32 vhcurveto
          endchar
        </CharString>
        <CharString name="Ograve">
          246 -10 88 544 88 hstem
          60 101 456 101 vstem
          389 78 rmoveto
          -148 -78 123 146 -2 hvcurveto
          146 2 78 129 148 hhcurveto
          148 78 -129 -146 2 hvcurveto
          -146 -2 -78 -123 -148 hhcurveto
          -88 vmoveto
          196 131 134 223 2 hvcurveto
          223 -2 -131 140 -196 hhcurveto
          -196 -131 -140 -223 -2 hvcurveto
          -223 2 131 -134 196 hhcurveto
          50 797 rmoveto
          -118 148 -62 -62 128 -128 rlineto
          endchar
        </CharString>
        <CharString name="Oslash">
          296 -10 88 -78 111 511 88 -10 -20 hstemhm
          83 101 456 101 hintmask 10101100
          412 -10 rmoveto
          196 131 134 223 2 hvcurveto
          -1 96 -25 80 -43 61 rrcurveto
          hintmask 10011100
          97 116 rlineto
          -95 hlineto
          hintmask 01101100
          -52 -62 rlineto
          47 -55 -72 25 -83 hhcurveto
          -196 -131 -140 -223 -2 hvcurveto
          1 -97 25 -79 44 -60 -95 -111 rcurveline
          96 hlineto
          hintmask 10101100
          49 58 rlineto
          -44 55 71 -24 83 hhcurveto
          -228 357 rmoveto
          146 2 78 129 148 hhcurveto
          58 47 -20 -33 36 hvcurveto
          -328 -385 -27 46 -13 56 -1 61 rlinecurve
          228 -269 rmoveto
          -57 -47 18 31 -36 hvcurveto
          327 384 26 -47 14 -57 1 -60 rlinecurve
          -146 -2 -78 -123 -148 hhcurveto
          endchar
        </CharString>
        <CharString name="Otilde">
          246 -10 88 544 88 71 68 -28 68 hstemhm
          60 101 356 51 49 101 hintmask 11101110
          389 78 rmoveto
          -148 -78 123 146 -2 hvcurveto
          146 2 78 129 148 hhcurveto
          148 78 -129 -146 2 hvcurveto
          -146 -2 -78 -123 -148 hhcurveto
          -88 vmoveto
          196 131 134 223 2 hvcurveto
          223 -2 -131 140 -196 hhcurveto
          -196 -131 -140 -223 -2 hvcurveto
          -223 2 131 -134 196 hhcurveto
          128 906 rmoveto
          -24 -19 -23 -30 -25 -26 12 9 -21 vhcurveto
          hintmask 11011110
          12 -32 -22 7 -27 hhcurveto
          -76 -26 -65 -50 -3 hvcurveto
          51 hlineto
          31 5 19 16 24 hhcurveto
          16 17 -7 -9 25 hvcurveto
          hintmask 11101110
          -9 19 49 -15 25 hhcurveto
          58 47 51 64 3 hvcurveto
          endchar
        </CharString>
        <CharString name="P">
          35 21 -21 255 88 279 88 hstem
          65 94 274 99 vstem
          159 hmoveto
          464 vlineto
          92 50 66 87 92 45 -61 -76 -79 -52 -63 -92 vhcurveto
          -86 -88 75 hlineto
          118 136 56 172 126 -80 101 -155 -138 -94 -90 -160 hvcurveto
          -460 vlineto
          endchar
        </CharString>
        <CharString name="Q">
          246 -149 89 682 88 hstem
          60 101 456 101 vstem
          382 -10 rmoveto
          -33 85 46 -106 138 hhcurveto
          71 89 -69 hlineto
          -52 -41 34 37 -46 hvcurveto
          125 46 77 118 2 172 rrcurveto
          223 -2 -131 140 -196 hhcurveto
          -196 -131 -140 -223 -2 hvcurveto
          2 -220 128 -134 192 -3 rrcurveto
          7 88 rmoveto
          -148 -78 123 146 -2 hvcurveto
          146 2 78 129 148 hhcurveto
          148 78 -129 -146 2 hvcurveto
          -146 -2 -78 -123 -148 hhcurveto
          endchar
        </CharString>
        <CharString name="R">
          42 21 -21 289 88 245 88 hstemhm
          65 94 265 94 -88 94 hintmask 11111000
          65 hmoveto
          94 455 hlineto
          123 50 44 88 vhcurveto
          hintmask 11110100
          79 54 -44 -69 -57 -27 -75 -143 hvcurveto
          -57 -88 54 hlineto
          hintmask 11111000
          110 57 -62 -99 hvcurveto
          -128 94 75 vlineto
          162 -24 58 -102 39 vhcurveto
          4 vlineto
          hintmask 11110100
          100 32 32 53 81 vvcurveto
          129 -80 77 -150 -147 -82 -95 -160 vhcurveto
          endchar
        </CharString>
        <CharString name="S">
          -28 0 88 524 88 hstem
          45 100 220 99 vstem
          423 700 rmoveto
          -183 hlineto
          -108 -87 -50 -117 -114 81 -53 76 -29 hvcurveto
          83 -32 80 -26 -79 vvcurveto
          -77 -69 -35 -85 vhcurveto
          -153 -88 156 hlineto
          13 13 0 1 14 hvcurveto
          82 3 128 53 142 vvcurveto
          126 -75 43 -79 29 vhcurveto
          -82 30 -83 38 65 vvcurveto
          60 37 22 64 vhcurveto
          177 hlineto
          endchar
        </CharString>
        <CharString name="T">
          -42 21 -21 612 88 hstem
          198 94 vstem
          25 612 rmoveto
          173 -612 94 612 173 88 -440 hlineto
          endchar
        </CharString>
        <CharString name="Thorn">
          15 21 -21 159 88 279 88 -88 174 hstemhm
          45 94 275 99 hintmask 11101100
          277 526 rmoveto
          92 45 -61 -76 -79 -52 -63 -92 hvcurveto
          -86 -88 75 hlineto
          118 136 56 172 126 -80 101 -155 hvcurveto
          -139 hlineto
          hintmask 11011100
          86 -94 -700 94 vlineto
          hintmask 11101100
          526 vlineto
          endchar
        </CharString>
        <CharString name="U">
          91 -10 88 622 -20 hstem
          65 94 305 94 vstem
          464 700 rmoveto
          -493 vlineto
          -96 -69 -33 -85 -82 -69 33 96 vhcurveto
          493 -94 -480 vlineto
          -161 83 -69 163 163 84 69 161 vhcurveto
          480 vlineto
          endchar
        </CharString>
        <CharString name="Uacute">
          91 -10 88 622 -20 hstem
          65 94 305 94 vstem
          464 700 rmoveto
          -493 vlineto
          -96 -69 -33 -85 -82 -69 33 96 vhcurveto
          493 -94 -480 vlineto
          -161 83 -69 163 163 84 69 161 vhcurveto
          480 vlineto
          -265 45 rmoveto
          128 128 -62 62 -118 -148 rlineto
          endchar
        </CharString>
        <CharString name="Ucircumflex">
          91 -10 88 622 -20 98 142 hstem
          65 94 305 94 vstem
          464 700 rmoveto
          -493 vlineto
          -96 -69 -33 -85 -82 -69 33 96 vhcurveto
          493 -94 -480 vlineto
          -161 83 -69 163 163 84 69 161 vhcurveto
          480 vlineto
          -237 172 rmoveto
          80 -94 rlineto
          81 hlineto
          -110 142 rlineto
          -101 hlineto
          -110 -142 rlineto
          81 hlineto
          endchar
        </CharString>
        <CharString name="Udieresis">
          91 -10 88 622 -20 108 112 hstemhm
          65 94 16 112 68 112 -3 94 hintmask 11110010
          464 700 rmoveto
          -493 vlineto
          -96 -69 -33 -85 -82 -69 33 96 vhcurveto
          493 -94 -480 vlineto
          -161 83 -69 163 163 84 69 161 vhcurveto
          480 vlineto
          hintmask 11111100
          -383 144 rmoveto
          -32 24 -24 32 32 24 24 32 32 -24 24 -32 -32 -24 -24 -32 vhcurveto
          180 hmoveto
          -32 24 -24 32 32 24 24 32 32 -24 24 -32 -32 -24 -24 -32 vhcurveto
          endchar
        </CharString>
        <CharString name="Ugrave">
          91 -10 88 622 -20 hstem
          65 94 305 94 vstem
          464 700 rmoveto
          -493 vlineto
          -96 -69 -33 -85 -82 -69 33 96 vhcurveto
          493 -94 -480 vlineto
          -161 83 -69 163 163 84 69 161 vhcurveto
          480 vlineto
          -186 87 rmoveto
          -118 148 -62 -62 128 -128 rlineto
          endchar
        </CharString>
        <CharString name="V">
          71 700 -20 hstem
          55 96 303 94 vstem
          548 700 rmoveto
          -94 -334 hlineto
          -124 -34 -92 -117 -67 vhcurveto
          -120 66 -32 92 125 vvcurveto
          334 -96 -346 vlineto
          -174 84 -135 163 -65 vhcurveto
          165 67 81 139 177 vvcurveto
          endchar
        </CharString>
        <CharString name="W">
          294 347 133 0 -20 240 -20 hstemhm
          65 90 516 90 hintmask 01111000
          576 90 rmoveto
          -31 26 -27 33 -60 331 rrcurveto
          -90 hlineto
          -27 -228 -23 -103 -68 -59 -52 52 -27 72 -6 114 -20 372 rcurveline
          -90 hlineto
          20 -376 9 -174 45 -95 123 -75 rlinecurve
          hintmask 10111000
          122 98 27 74 10 195 rrcurveto
          4 hlineto
          19 -162 23 -122 117 -83 123 75 45 95 9 174 20 376 rcurveline
          -90 hlineto
          -20 -372 rlineto
          hintmask 01111000
          -6 -114 -27 -72 -52 -52 rrcurveto
          endchar
        </CharString>
        <CharString name="X">
          31 21 -21 700 -20 hstem
          45 94 283 96 vstem
          45 688 rmoveto
          -137 51 -114 103 -71 vhcurveto
          -103 -72 -51 -113 -137 vvcurveto
          -44 94 44 vlineto
          116 32 102 109 63 vhcurveto
          112 -62 30 -102 -117 vvcurveto
          -44 96 53 vlineto
          133 -53 110 -101 70 vhcurveto
          101 69 53 110 134 vvcurveto
          21 -96 -12 vlineto
          -117 -30 -102 -112 -62 vhcurveto
          -109 63 -32 102 116 vvcurveto
          12 -94 vlineto
          endchar
        </CharString>
        <CharString name="Y">
          11 21 -21 700 -20 hstem
          45 96 85 94 84 94 vstem
          498 700 rmoveto
          -94 -50 hlineto
          -124 -30 -106 -101 -67 vhcurveto
          -104 66 -28 106 125 vvcurveto
          50 -96 -59 vlineto
          -155 62 -145 119 -71 vhcurveto
          -270 94 272 vlineto
          119 73 59 148 157 vvcurveto
          endchar
        </CharString>
        <CharString name="Yacute">
          11 21 -21 700 -20 hstem
          45 96 85 94 84 94 vstem
          498 700 rmoveto
          -94 -50 hlineto
          -124 -30 -106 -101 -67 vhcurveto
          -104 66 -28 106 125 vvcurveto
          50 -96 -59 vlineto
          -155 62 -145 119 -71 vhcurveto
          -270 94 272 vlineto
          119 73 59 148 157 vvcurveto
          -235 95 rmoveto
          128 128 -62 62 -118 -148 rlineto
          endchar
        </CharString>
        <CharString name="Z">
          -11 0 88 524 88 hstem
          45 98 vstem
          45 hmoveto
          431 88 -333 hlineto
          11 92 47 59 78 66 71 61 69 72 36 100 rrcurveto
          15 41 4 46 54 vvcurveto
          21 -429 -88 330 vlineto
          -24 -105 -73 -71 -74 -70 rrcurveto
          -86 -81 -73 -91 -150 vvcurveto
          endchar
        </CharString>
        <CharString name="_216">
          -32 endchar
        </CharString>
        <CharString name="a">
          -29 0 84 137 77 98 84 hstem
          45 90 230 88 vstem
          327 282 rmoveto
          10 -32 -30 6 -34 hhcurveto
          -100 -86 -46 -103 -100 76 -49 109 hvcurveto
          223 294 hlineto
          121 -73 65 -128 vhcurveto
          -165 -84 160 hlineto
          72 46 -35 -86 hvcurveto
          -191 -132 vlineto
          -41 -57 11 55 45 37 26 62 28 32 -4 -25 33 hvcurveto
          endchar
        </CharString>
        <CharString name="aacute">
          -29 0 84 137 77 98 84 hstem
          45 90 230 88 vstem
          327 282 rmoveto
          10 -32 -30 6 -34 hhcurveto
          -100 -86 -46 -103 -100 76 -49 109 hvcurveto
          223 294 hlineto
          121 -73 65 -128 vhcurveto
          -165 -84 160 hlineto
          72 46 -35 -86 hvcurveto
          -191 -132 vlineto
          -41 -57 11 55 45 37 26 62 28 32 -4 -25 33 hvcurveto
          -74 333 rmoveto
          128 128 -62 62 -118 -148 rlineto
          endchar
        </CharString>
        <CharString name="acircumflex">
          -29 0 84 137 77 98 84 78 142 -48 48 hstemhm
          45 90 230 88 hintmask 11110110
          327 282 rmoveto
          10 -32 -30 6 -34 hhcurveto
          -100 -86 -46 -103 -100 76 -49 109 hvcurveto
          223 294 hlineto
          121 -73 65 -128 vhcurveto
          -165 -84 160 hlineto
          72 46 -35 -86 hvcurveto
          -191 -132 vlineto
          -41 -57 11 55 45 37 26 62 28 32 -4 -25 33 hvcurveto
          hintmask 11101110
          -76 460 rmoveto
          hintmask 11110110
          80 -94 rlineto
          81 hlineto
          -110 142 rlineto
          -101 hlineto
          -110 -142 rlineto
          81 hlineto
          endchar
        </CharString>
        <CharString name="acute">
          -282 525 190 hstem
          35 180 vstem
          87 525 rmoveto
          128 128 -62 62 -118 -148 rlineto
          endchar
        </CharString>
        <CharString name="adieresis">
          -29 0 84 137 77 98 84 88 112 hstemhm
          45 90 -40 112 68 112 -22 88 hintmask 11111001
          327 282 rmoveto
          10 -32 -30 6 -34 hhcurveto
          -100 -86 -46 -103 -100 76 -49 109 hvcurveto
          223 294 hlineto
          121 -73 65 -128 vhcurveto
          -165 -84 160 hlineto
          72 46 -35 -86 hvcurveto
          -191 -132 vlineto
          -41 -57 11 55 45 37 26 62 28 32 -4 -25 33 hvcurveto
          hintmask 11110110
          -232 432 rmoveto
          -32 24 -24 32 32 24 24 32 32 -24 24 -32 -32 -24 -24 -32 vhcurveto
          180 hmoveto
          -32 24 -24 32 32 24 24 32 32 -24 24 -32 -32 -24 -24 -32 vhcurveto
          endchar
        </CharString>
        <CharString name="ae">
          280 -10 84 -73 77 104 77 -38 77 98 84 -70 80 hstemhm
          45 90 232 92 234 93 hintmask 0110101110000000
          hintmask 0101101110000000
          308 288 rmoveto
          7 -25 -25 3 -27 hhcurveto
          -100 -86 -44 -103 -103 86 -47 100 71 65 27 41 56 hvcurveto
          hintmask 1010011110000000
          -50 43 66 -29 84 hhcurveto
          60 60 21 35 43 hvcurveto
          -60 59 rlineto
          -20 -26 -39 -11 -38 hhcurveto
          -93 -64 67 99 88 53 82 99 45 37 -18 -44 -62 -28 -27 -91 hvcurveto
          -48 -77 41 hlineto
          132 87 47 120 99 -67 42 -103 -86 -66 -29 -53 -43 hvcurveto
          hintmask 0101101110000000
          47 -33 -57 25 -79 hhcurveto
          -165 -84 160 hlineto
          72 48 -35 -86 hvcurveto
          -26 -1 -10 -9 vvcurveto
          -35 6 -32 11 -29 vhcurveto
          -34 -44 -48 -22 -57 hhcurveto
          -62 -37 27 45 45 37 26 62 23 25 -2 -15 27 hvcurveto
          endchar
        </CharString>
        <CharString name="agrave">
          -29 0 84 137 77 98 84 hstem
          45 90 230 88 vstem
          327 282 rmoveto
          10 -32 -30 6 -34 hhcurveto
          -100 -86 -46 -103 -100 76 -49 109 hvcurveto
          223 294 hlineto
          121 -73 65 -128 vhcurveto
          -165 -84 160 hlineto
          72 46 -35 -86 hvcurveto
          -191 -132 vlineto
          -41 -57 11 55 45 37 26 62 28 32 -4 -25 33 hvcurveto
          4 375 rmoveto
          -118 148 -62 -62 128 -128 rlineto
          endchar
        </CharString>
        <CharString name="ampersand">
          59 0 88 240 88 196 88 hstemhm
          55 94 -71 94 245 93 hintmask 11110100
          295 700 rmoveto
          hintmask 11101100
          -62 -60 -3 -45 -48 hvcurveto
          -23 -22 -24 -37 -60 vvcurveto
          -73 29 -57 78 -27 vhcurveto
          -4 vlineto
          hintmask 11110100
          -91 -25 -39 -71 -77 vvcurveto
          -47 11 -43 35 -39 vhcurveto
          -63 55 68 -7 59 hhcurveto
          64 151 15 184 12 hvcurveto
          129 56 88 -259 vlineto
          hintmask 11101100
          -55 -80 19 85 80 66 12 44 hvcurveto
          73 -1 31 -28 6 -50 rrcurveto
          95 hlineto
          hintmask 11110100
          107 -5 -63 60 -124 hhcurveto
          -6 -612 rmoveto
          -93 -47 48 70 95 60 27 110 hvcurveto
          98 -122 -1 hlineto
          -88 -6 -59 -30 -62 hhcurveto
          endchar
        </CharString>
        <CharString name="aring">
          -29 0 84 137 77 98 84 46 50 95 51 hstemhm
          45 90 17 50 95 51 17 88 hintmask 1111110010000000
          327 282 rmoveto
          10 -32 -30 6 -34 hhcurveto
          -100 -86 -46 -103 -100 76 -49 109 hvcurveto
          223 294 hlineto
          121 -73 65 -128 vhcurveto
          -165 -84 160 hlineto
          72 46 -35 -86 hvcurveto
          -191 -132 vlineto
          -41 -57 11 55 45 37 26 62 28 32 -4 -25 33 hvcurveto
          hintmask 1111111110000000
          -175 432 rmoveto
          -56 42 -42 56 56 42 42 56 56 -42 42 -56 -56 -42 -42 -56 vhcurveto
          50 hmoveto
          27 21 20 27 27 20 -20 -27 -27 -20 -21 -27 -27 -21 21 27 vhcurveto
          endchar
        </CharString>
        <CharString name="asciicircum">
          46 614 86 0 -20 hstemhm
          45 488 hintmask 01100000
          hintmask 10100000
          289 614 rmoveto
          160 -288 rlineto
          84 hlineto
          -206 374 rlineto
          -76 hlineto
          -206 -374 rlineto
          84 hlineto
          endchar
        </CharString>
        <CharString name="asciitilde">
          80 168 76 -8 76 hstemhm
          75 462 hintmask 01100000
          hintmask 10100000
          501 316 rmoveto
          -27 -13 -33 -45 -44 hhcurveto
          -21 -25 12 17 -39 hvcurveto
          hintmask 01100000
          21 -47 -38 18 -41 hhcurveto
          -66 -40 -45 -41 -19 hvcurveto
          36 -62 rlineto
          53 21 31 19 36 hhcurveto
          41 41 -20 -16 31 hvcurveto
          hintmask 10100000
          -17 33 30 -15 36 hhcurveto
          53 38 30 56 35 hvcurveto
          endchar
        </CharString>
        <CharString name="asterisk">
          -66 700 -20 hstem
          201 64 vstem
          83 374 rmoveto
          124 80 -12 -140 rlineto
          76 hlineto
          -12 140 124 -80 38 62 -132 71 132 69 -38 62 -124 -84 12 146 rlineto
          -76 hlineto
          12 -146 -124 84 -38 -62 132 -69 -132 -71 rlineto
          endchar
        </CharString>
        <CharString name="at">
          252 -12 76 109 76 202 76 103 75 hstem
          55 79 93 79 193 79 71 80 vstem
          623 137 rmoveto
          -49 -65 -45 -24 -97 hhcurveto
          -162 -120 118 162 114 60 90 78 46 hvcurveto
          23 41 47 13 47 hhcurveto
          46 46 -9 -21 40 hvcurveto
          -1 hlineto
          48 -28 63 -58 -115 vvcurveto
          -76 -29 -70 -28 -14 0 10 12 vhcurveto
          40 vlineto
          48 -2 54 -35 46 vhcurveto
          36 -27 -46 28 -61 hhcurveto
          -31 -28 -6 -14 -25 hvcurveto
          -46 -24 -50 -49 -86 vvcurveto
          -109 78 -66 93 34 24 10 10 15 vhcurveto
          78 vlineto
          -17 -22 -19 -5 -24 hhcurveto
          -55 -45 39 58 55 34 50 61 97 1 -104 -29 hvcurveto
          -48 vlineto
          -30 4 -67 71 82 73 104 131 139 -87 87 -81 40 vhcurveto
          21 -45 -53 10 -48 hhcurveto
          -58 -55 -12 -27 -51 hvcurveto
          -101 -54 -95 -106 -158 vvcurveto
          -202 163 -158 202 71 72 22 46 60 vhcurveto
          endchar
        </CharString>
        <CharString name="atilde">
          -29 0 84 137 77 98 84 81 68 -28 68 hstemhm
          45 90 230 88 -74 51 hintmask 11110110
          327 282 rmoveto
          10 -32 -30 6 -34 hhcurveto
          -100 -86 -46 -103 -100 76 -49 109 hvcurveto
          223 294 hlineto
          121 -73 65 -128 vhcurveto
          -165 -84 160 hlineto
          72 46 -35 -86 hvcurveto
          -191 -132 vlineto
          -41 -57 11 55 45 37 26 62 28 32 -4 -25 33 hvcurveto
          hintmask 11110101
          52 484 rmoveto
          -24 -19 -23 -30 -25 -26 12 9 -21 vhcurveto
          hintmask 11101110
          12 -32 -22 7 -27 hhcurveto
          -76 -26 -65 -50 -3 hvcurveto
          51 hlineto
          31 5 19 16 24 hhcurveto
          16 17 -7 -9 25 hvcurveto
          hintmask 11110101
          -9 19 49 -15 25 hhcurveto
          58 47 51 64 3 hvcurveto
          endchar
        </CharString>
        <CharString name="b">
          63 -10 84 332 84 210 -20 hstem
          60 90 310 90 vstem
          60 700 rmoveto
          -460 vlineto
          -154 96 -96 139 139 116 84 166 154 -106 96 -139 -44 -40 -11 -19 -35 vhcurveto
          -90 vlineto
          24 31 46 12 32 hhcurveto
          96 69 -61 -105 -111 -62 -55 -96 -93 -59 59 107 hvcurveto
          460 vlineto
          endchar
        </CharString>
        <CharString name="backslash">
          -180 11 -21 720 -20 hstem
          -30 412 vstem
          -30 710 rmoveto
          324 -720 rlineto
          88 hlineto
          -324 720 rlineto
          endchar
        </CharString>
        <CharString name="bar">
          -312 21 -21 700 -20 hstem
          75 70 vstem
          75 hmoveto
          70 700 -70 hlineto
          endchar
        </CharString>
        <CharString name="braceleft">
          -154 -126 46 784 46 hstem
          154 88 vstem
          75 282 rmoveto
          53 -7 26 -52 -53 vvcurveto
          -174 vlineto
          -65 41 -57 59 vhcurveto
          79 46 -46 hlineto
          -14 -31 1 79 hvcurveto
          185 vlineto
          71 -34 43 -45 13 vhcurveto
          69 32 10 54 40 vvcurveto
          186 vlineto
          79 27 1 21 vhcurveto
          43 46 -67 hlineto
          -67 -45 -43 -79 hvcurveto
          -173 vlineto
          -57 -26 -51 -53 -5 vhcurveto
          endchar
        </CharString>
        <CharString name="braceright">
          -125 -126 46 784 46 hstem
          136 88 vstem
          303 342 rmoveto
          -53 7 -26 52 53 vvcurveto
          174 vlineto
          65 -41 57 -59 vhcurveto
          -79 -46 46 hlineto
          14 31 -1 -79 hvcurveto
          -177 vlineto
          -20 -1 -91 80 -24 vhcurveto
          -70 -32 -9 -52 -47 vvcurveto
          -181 vlineto
          -79 -31 -1 -14 vhcurveto
          -46 -46 79 hlineto
          59 41 57 65 hvcurveto
          177 vlineto
          52 26 52 53 5 vhcurveto
          endchar
        </CharString>
        <CharString name="bracketleft">
          -238 -126 60 756 60 hstem
          75 90 vstem
          249 -126 rmoveto
          60 -84 756 84 60 -174 -876 vlineto
          endchar
        </CharString>
        <CharString name="bracketright">
          -238 -126 60 756 60 hstem
          129 90 vstem
          219 -126 rmoveto
          876 -174 -60 84 -756 -84 -60 vlineto
          endchar
        </CharString>
        <CharString name="brokenbar">
          -312 21 -21 700 -20 hstem
          75 70 vstem
          75 418 rmoveto
          70 282 -70 hlineto
          -700 vmoveto
          70 282 -70 hlineto
          endchar
        </CharString>
        <CharString name="bullet">
          -120 481 -20 hstem
          75 262 vstem
          206 481 rmoveto
          -74 -57 -57 -74 -74 57 -57 74 74 57 57 74 74 -57 57 -74 hvcurveto
          endchar
        </CharString>
        <CharString name="c">
          -59 -10 84 332 84 hstem
          45 95 vstem
          388 105 rmoveto
          -20 -26 -34 -11 -38 hhcurveto
          -93 -57 67 99 99 57 67 93 39 34 -12 -20 26 hvcurveto
          59 60 rlineto
          35 -43 -55 21 -60 hhcurveto
          -139 -106 -111 -139 -139 94 -111 151 60 55 21 35 43 hvcurveto
          endchar
        </CharString>
        <CharString name="caron">
          -150 558 142 hstem
          31 321 vstem
          192 606 rmoveto
          -80 94 rlineto
          -81 hlineto
          110 -142 rlineto
          101 hlineto
          110 142 rlineto
          -81 hlineto
          endchar
        </CharString>
        <CharString name="ccedilla">
          -59 -228 49 86 40 43 84 -59 -21 412 84 hstemhm
          45 95 181 80 hintmask 11011110
          231 -101 rmoveto
          7 16 15 1 9 hhcurveto
          34 16 -22 -20 -17 -9 -27 -49 -16 -22 2 14 -32 hvcurveto
          -19 -41 rlineto
          -21 49 37 -3 18 hhcurveto
          80 43 44 53 30 -13 48 -75 -11 -10 -1 -2 -11 hvcurveto
          hintmask 11101110
          19 46 56 3 51 20 41 33 rlinecurve
          -60 59 rlineto
          -20 -26 -34 -11 -38 hhcurveto
          -93 -57 67 99 99 57 67 93 39 34 -12 -20 26 hvcurveto
          59 60 rlineto
          35 -43 -55 21 -60 hhcurveto
          -139 -106 -111 -139 hvcurveto
          hintmask 11011110
          -124 74 -101 122 -21 vhcurveto
          -29 -74 rlineto
          endchar
        </CharString>
        <CharString name="cedilla">
          -315 -228 49 86 40 hstem
          182 80 vstem
          92 -101 rmoveto
          7 16 15 1 9 hhcurveto
          34 16 -22 -20 -17 -9 -27 -49 -16 -22 2 14 -32 hvcurveto
          -19 -41 rlineto
          -21 49 37 -3 18 hhcurveto
          80 43 44 53 30 -13 48 -75 -11 -10 -1 -2 -11 hvcurveto
          28 66 rlineto
          -61 hlineto
          -36 -90 rlineto
          endchar
        </CharString>
        <CharString name="cent">
          -59 -9 83 -62 -21 29 -21 406 84 -8 -20 28 -20 hstemhm
          45 95 85 80 hintmask 00100111
          hintmask 01000111
          225 -100 rmoveto
          80 91 hlineto
          54 3 49 20 40 32 rrcurveto
          hintmask 10010011
          -60 59 -23 -18 -28 -10 -32 -3 rlinecurve
          331 vlineto
          33 -2 28 -12 23 -17 59 60 rcurveline
          -40 32 -49 20 -54 3 rrcurveto
          111 -80 vlineto
          hintmask 00101011
          -119 vlineto
          -106 -28 -74 -97 -116 vvcurveto
          -117 74 -96 106 -28 vhcurveto
          -85 241 rmoveto
          73 31 56 54 24 vhcurveto
          -306 vlineto
          -54 24 -31 56 73 vvcurveto
          endchar
        </CharString>
        <CharString name="circumflex">
          -150 558 142 -48 48 hstemhm
          31 321 hintmask 10100000
          hintmask 01100000
          191 652 rmoveto
          hintmask 10100000
          80 -94 rlineto
          81 hlineto
          -110 142 rlineto
          -101 hlineto
          -110 -142 rlineto
          81 hlineto
          endchar
        </CharString>
        <CharString name="colon">
          -363 -10 124 246 124 hstem
          10 124 vstem
          10 422 rmoveto
          -35 27 -27 35 35 27 27 35 35 -27 27 -35 -35 -27 -27 -35 vhcurveto
          -370 vmoveto
          -35 27 -27 35 35 27 27 35 35 -27 27 -35 -35 -27 -27 -35 vhcurveto
          endchar
        </CharString>
        <CharString name="comma">
          -316 0 84 hstemhm
          10 171 -103 103 hintmask 11000000
          hintmask 10100000
          84 -155 rmoveto
          52 53 45 72 114 vvcurveto
          -131 hlineto
          -40 -84 rlineto
          68 hlineto
          -5 -38 -12 -32 -27 -53 rrcurveto
          endchar
        </CharString>
        <CharString name="copyright">
          286 -12 64 74 74 273 74 101 64 hstem
          55 70 92 81 395 70 vstem
          55 350 rmoveto
          -211 162 -151 192 192 162 151 211 211 -162 151 -192 -192 -162 -151 -211 vhcurveto
          70 hmoveto
          160 115 138 169 169 115 -138 -160 -162 -117 -136 -167 -169 -115 136 162 vhcurveto
          377 197 rmoveto
          -44 hlineto
          -52 -48 -2 -35 -51 hvcurveto
          -59 -39 -31 -66 -68 vvcurveto
          -104 74 -107 155 vhcurveto
          56 74 -54 hlineto
          -100 -50 68 69 45 19 40 31 23 hvcurveto
          27 35 38 1 37 hhcurveto
          44 hlineto
          endchar
        </CharString>
        <CharString name="currency">
          63 149 76 250 76 hstem
          96 80 242 80 vstem
          131 145 rmoveto
          45 48 rlineto
          -40 45 47 -4 29 hhcurveto
          29 47 4 40 45 hvcurveto
          45 -48 39 39 -45 47 rlineto
          32 39 9 42 38 vvcurveto
          38 -9 42 -32 39 vhcurveto
          45 47 -39 39 -45 -48 rlineto
          40 -45 -47 4 -29 hhcurveto
          -29 -47 -4 -40 -45 hvcurveto
          -45 48 -39 -39 45 -47 rlineto
          -32 -39 -9 -42 -38 vvcurveto
          -38 9 -42 32 -39 vhcurveto
          -45 -47 rlineto
          84 166 rmoveto
          68 54 57 67 67 54 -57 -68 -68 -54 -57 -67 -67 -54 57 68 vhcurveto
          endchar
        </CharString>
        <CharString name="d">
          53 0 84 322 84 210 -20 hstem
          45 95 295 90 vstem
          435 700 rmoveto
          -616 -145 vlineto
          -96 -54 65 96 98 66 63 77 40 41 -11 -25 35 hvcurveto
          90 vlineto
          21 -38 -40 9 -38 hhcurveto
          -127 -111 -104 -141 -139 98 -106 147 hvcurveto
          235 700 hlineto
          endchar
        </CharString>
        <CharString name="degree">
          -193 493 65 99 65 hstem
          55 65 99 65 vstem
          55 607 rmoveto
          -65 49 -49 65 66 49 49 65 66 -49 49 -66 -65 -49 -49 -66 vhcurveto
          65 hmoveto
          29 21 21 28 29 21 -21 -29 -28 -21 -21 -29 -28 -21 21 28 vhcurveto
          endchar
        </CharString>
        <CharString name="dieresis">
          -170 568 112 hstem
          35 112 68 112 vstem
          35 624 rmoveto
          -32 24 -24 32 32 24 24 32 32 -24 24 -32 -32 -24 -24 -32 vhcurveto
          180 hmoveto
          -32 24 -24 32 32 24 24 32 32 -24 24 -32 -32 -24 -24 -32 vhcurveto
          endchar
        </CharString>
        <CharString name="divide">
          -10 124 87 78 81 124 hstem
          228 124 vstem
          228 422 rmoveto
          -35 27 -27 35 35 27 27 35 35 -27 27 -35 -35 -27 -27 -35 vhcurveto
          -370 vmoveto
          -35 27 -27 35 35 27 27 35 35 -27 27 -35 -35 -27 -27 -35 vhcurveto
          302 149 rmoveto
          78 -480 -78 vlineto
          endchar
        </CharString>
        <CharString name="dollar">
          -21 0 88 524 88 hstem
          45 100 86 60 74 99 vstem
          231 700 rmoveto
          -54 -1 -44 -14 -34 -27 rrcurveto
          -36 -27 -18 -42 -56 vvcurveto
          -91 52 -65 105 -40 vhcurveto
          14 -5 15 -6 rlineto
          -238 -173 -88 173 -60 60 65 vlineto
          10 2 10 3 10 3 69 21 76 62 -2 103 rrcurveto
          60 -16 47 -32 29 vhcurveto
          -32 29 -29 16 -45 17 -19 7 rcurveline
          208 132 88 -132 50 -60 vlineto
          -86 -220 rmoveto
          50 29 27 57 4 vhcurveto
          -180 vlineto
          -16 8 -14 8 -12 8 rrcurveto
          -29 21 -15 25 29 vvcurveto
          177 -414 rmoveto
          -9 -6 -11 -5 -11 -4 rrcurveto
          198 vlineto
          9 -5 9 -5 9 -6 rrcurveto
          31 -20 16 -27 -36 vvcurveto
          -37 -14 -28 -29 -19 vhcurveto
          endchar
        </CharString>
        <CharString name="dotlessi">
          -268 21 -21 396 84 hstem
          102 88 vstem
          190 hmoveto
          480 -130 vlineto
          -40 -84 rlineto
          82 -396 hlineto
          endchar
        </CharString>
        <CharString name="e">
          -27 -10 84 108 77 151 80 hstem
          45 93 234 93 vstem
          295 490 rmoveto
          -159 5 -91 -112 -153 vvcurveto
          -139 96 -101 154 60 60 21 35 43 vhcurveto
          -60 59 rlineto
          -20 -26 -39 -11 -38 hhcurveto
          -93 -64 67 99 88 53 82 99 45 37 -18 -44 -62 -28 -27 -91 hvcurveto
          -48 -77 41 hlineto
          132 87 47 120 99 -67 38 -103 4 hvcurveto
          endchar
        </CharString>
        <CharString name="eacute">
          -27 -10 84 108 77 151 80 hstem
          45 93 234 93 vstem
          295 490 rmoveto
          -159 5 -91 -112 -153 vvcurveto
          -139 96 -101 154 60 60 21 35 43 vhcurveto
          -60 59 rlineto
          -20 -26 -39 -11 -38 hhcurveto
          -93 -64 67 99 88 53 82 99 45 37 -18 -44 -62 -28 -27 -91 hvcurveto
          -48 -77 41 hlineto
          132 87 47 120 99 -67 38 -103 4 hvcurveto
          -21 35 rmoveto
          128 128 -62 62 -118 -148 rlineto
          endchar
        </CharString>
        <CharString name="ecircumflex">
          -27 -10 84 108 77 151 80 68 142 -48 48 hstemhm
          45 93 234 93 hintmask 11110110
          295 490 rmoveto
          -159 5 -91 -112 -153 vvcurveto
          -139 96 -101 154 60 60 21 35 43 vhcurveto
          -60 59 rlineto
          -20 -26 -39 -11 -38 hhcurveto
          -93 -64 67 99 88 53 82 99 45 37 -18 -44 -62 -28 -27 -91 hvcurveto
          -48 -77 41 hlineto
          132 87 47 120 99 -67 38 -103 4 hvcurveto
          hintmask 11101110
          -12 162 rmoveto
          hintmask 11110110
          80 -94 rlineto
          81 hlineto
          -110 142 rlineto
          -101 hlineto
          -110 -142 rlineto
          81 hlineto
          endchar
        </CharString>
        <CharString name="edieresis">
          -27 -10 84 108 77 151 80 78 112 hstemhm
          45 93 -22 112 68 112 -36 93 hintmask 11101001
          295 490 rmoveto
          -159 5 -91 -112 -153 vvcurveto
          -139 96 -101 154 60 60 21 35 43 vhcurveto
          -60 59 rlineto
          -20 -26 -39 -11 -38 hhcurveto
          -93 -64 67 99 88 53 82 99 45 37 -18 -44 -62 -28 -27 -91 hvcurveto
          -48 -77 41 hlineto
          132 87 47 120 99 -67 38 -103 4 hvcurveto
          hintmask 11110110
          -179 134 rmoveto
          -32 24 -24 32 32 24 24 32 32 -24 24 -32 -32 -24 -24 -32 vhcurveto
          180 hmoveto
          -32 24 -24 32 32 24 24 32 32 -24 24 -32 -32 -24 -24 -32 vhcurveto
          endchar
        </CharString>
        <CharString name="egrave">
          -27 -10 84 108 77 151 80 hstem
          45 93 234 93 vstem
          295 490 rmoveto
          -159 5 -91 -112 -153 vvcurveto
          -139 96 -101 154 60 60 21 35 43 vhcurveto
          -60 59 rlineto
          -20 -26 -39 -11 -38 hhcurveto
          -93 -64 67 99 88 53 82 99 45 37 -18 -44 -62 -28 -27 -91 hvcurveto
          -48 -77 41 hlineto
          132 87 47 120 99 -67 38 -103 4 hvcurveto
          37 77 rmoveto
          -118 148 -62 -62 128 -128 rlineto
          endchar
        </CharString>
        <CharString name="eight">
          26 -10 78 260 68 236 78 hstemhm
          55 97 -82 94 230 94 -82 97 hintmask 11110010
          hintmask 11101100
          279 710 rmoveto
          -147 -62 -93 -95 -70 32 -56 62 -29 hvcurveto
          -4 vlineto
          hintmask 11110010
          -72 -25 -37 -63 -91 vvcurveto
          -102 66 -92 158 158 66 92 102 91 -37 63 -72 25 vhcurveto
          4 vlineto
          hintmask 11110100
          62 29 32 56 70 vvcurveto
          hintmask 11101100
          95 -62 93 -147 vhcurveto
          hintmask 11110010
          -382 vmoveto
          83 44 -51 -81 -71 -29 -57 -98 -89 -38 57 71 81 42 51 85 hvcurveto
          hintmask 11101100
          304 vmoveto
          88 27 -61 -61 -76 -52 -38 -63 -63 -52 38 76 61 27 61 88 hvcurveto
          endchar
        </CharString>
        <CharString name="emdash">
          184 208 74 hstem
          33 650 vstem
          683 208 rmoveto
          74 -650 -74 vlineto
          endchar
        </CharString>
        <CharString name="endash">
          34 208 74 hstem
          33 500 vstem
          533 208 rmoveto
          74 -500 -74 vlineto
          endchar
        </CharString>
        <CharString name="equal">
          102 78 120 78 hstem
          50 480 vstem
          530 378 rmoveto
          -480 -78 480 hlineto
          -120 vmoveto
          -480 -78 480 hlineto
          endchar
        </CharString>
        <CharString name="eth">
          54 -10 84 312 84 237 -20 hstem
          44 89 316 88 vstem
          165 656 rmoveto
          17 -7 23 -10 43 -28 -91 -47 rcurveline
          48 -58 106 55 rlineto
          83 -78 55 -108 -107 vvcurveto
          -146 -65 -48 -96 -93 -62 67 99 87 57 59 99 28 22 -6 -7 17 vhcurveto
          -18 93 rlineto
          3 -13 -20 1 -17 hhcurveto
          -141 -103 -100 -130 -137 101 -113 145 160 87 131 147 128 -67 124 -85 80 hvcurveto
          91 49 -49 58 -103 -55 -47 36 -39 17 -19 7 rlinecurve
          endchar
        </CharString>
        <CharString name="exclam">
          -258 -10 124 597 -20 hstemhm
          75 124 -119 114 hintmask 11010000
          80 659 rmoveto
          -33 17 -125 -320 vvcurveto
          84 hlineto
          320 13 125 33 vvcurveto
          35 -22 17 -35 -35 -22 -17 -35 vhcurveto
          hintmask 11100000
          -5 -607 rmoveto
          -35 27 -27 35 35 27 27 35 35 -27 27 -35 -35 -27 -27 -35 vhcurveto
          endchar
        </CharString>
        <CharString name="exclamdown">
          -258 357 124 hstemhm
          75 124 -119 114 hintmask 10100000
          80 -188 rmoveto
          -35 22 -17 35 35 22 17 35 vhcurveto
          33 -13 125 320 vvcurveto
          -84 hlineto
          -320 -17 -125 -33 vvcurveto
          hintmask 11000000
          -5 607 rmoveto
          -35 27 -27 35 35 27 27 35 35 -27 27 -35 -35 -27 -27 -35 vhcurveto
          endchar
        </CharString>
        <CharString name="f">
          -216 21 -21 396 84 137 84 hstem
          91 90 vstem
          296 396 rmoveto
          84 -115 vlineto
          99 62 38 93 vhcurveto
          84 vlineto
          -139 -106 -82 -139 hvcurveto
          -28 hlineto
          -40 -84 rlineto
          68 -396 90 396 hlineto
          endchar
        </CharString>
        <CharString name="five">
          0 -10 88 289 88 151 94 hstem
          81 89 222 102 vstem
          81 700 rmoveto
          -333 176 vlineto
          83 52 -37 -105 -104 -55 -43 -82 -79 -32 32 60 -33 hvcurveto
          -79 -43 rlineto
          -90 22 81 -47 123 hhcurveto
          140 96 88 147 147 -82 83 -155 hvcurveto
          -87 151 296 94 hlineto
          endchar
        </CharString>
        <CharString name="foundryicon">
          960 -182 22 150 23 -19 24 -18 20 3 7 -5 19 -18 9 -5 7 1 23 -21 7 79 129 hstemhm
          207 7 40 15 92 10 12 9 20 8 15 81 59 46 -32 66 -39 71 34 64 37 59 29 60 8 64 27 26 14 56 27 61 -52 14 69 71 31 41 hintmask 10010000000110101010101001011100
          hintmask 00100000000000000000000000101100
          1372 -6 rmoveto
          75 7 101 45 -7 hvcurveto
          -2 11 -2 -6 -5 vvcurveto
          -12 -62 -21 -39 -28 -21 rrcurveto
          -18 26 -8 35 43 vvcurveto
          46 21 25 86 71 vvcurveto
          75 -20 32 -73 12 vhcurveto
          -49 -88 -14 -154 23 -116 2 -8 rcurveline
          -5 -10 -14 -28 -12 3 -18 62 6 100 9 65 rrcurveto
          hintmask 00010000000000000000000001000000
          -9 10 -32 13 -14 -3 -4 -4 -8 -34 -1 -6 rrcurveto
          4 -13 -17 4 -14 hhcurveto
          -29 -31 -10 -41 -2 -45 rrcurveto
          -33 vlineto
          hintmask 00010000000000000000000010000000
          -8 -20 -14 -29 -23 -10 -12 8 -5 17 -4 17 rrcurveto
          34 11 18 47 42 vvcurveto
          61 -38 22 -53 -4 vhcurveto
          hintmask 00010000000000000000000100010000
          -15 -26 -10 -53 -1 -45 rrcurveto
          -60 -3 22 -57 65 hhcurveto
          27 3 18 19 10 17 rrcurveto
          -23 7 17 -16 32 hhcurveto
          16 2 22 13 4 17 rrcurveto
          hintmask 00100000000000000000000000011000
          -17 7 19 -21 23 hhcurveto
          21 15 19 18 5 hvcurveto
          hintmask 00100000000000000000000000101100
          -24 14 23 -13 30 hhcurveto
          hintmask 11000000000000001001100000000000
          -594 241 rmoveto
          -16 18 -35 14 -21 -2 7 -47 18 -94 -17 -77 -1 -5 -3 -10 -9 -2 -18 57 0 64 4 67 -16 15 -31 6 -12 2 rrcurveto
          -7 -14 -5 -22 -30 vvcurveto
          -33 3 -34 8 -28 vhcurveto
          -9 -21 -20 -36 -32 -10 -79 56 29 251 41 39 rrcurveto
          hintmask 01000000000000001100100000000000
          11 -14 12 -52 -5 -33 -1 -3 0 -7 7 8 rrcurveto
          23 20 17 25 30 vvcurveto
          78 -57 13 -38 8 vhcurveto
          -68 -59 -24 -103 1 -101 rrcurveto
          -88 2 36 -91 96 hhcurveto
          41 20 30 25 9 hvcurveto
          hintmask 10010000000000000010100000000000
          -27 13 21 -18 29 hhcurveto
          8 8 6 5 3 hvcurveto
          -10 -82 -2 -55 -51 -34 -6 24 4 32 3 23 rrcurveto
          17 -16 -25 6 -20 hhcurveto
          -5 -16 -4 -19 -20 vvcurveto
          -45 11 -24 44 vhcurveto
          hintmask 11000000000000001001100000000000
          123 35 220 197 -24 hvcurveto
          hintmask 00010000000000000000000010101100
          -535 -166 rmoveto
          8 hlineto
          -1 3 -5 3 vhcurveto
          -2 -1 -1 -1 -2 vvcurveto
          -2 12 -3 13 -7 vhcurveto
          -5 -2 -3 0 -5 -4 3 -2 rcurveline
          3 7 1 1 7 hhcurveto
          8 1 6 -4 6 -6 rrcurveto
          0 1 0 1 2 vhcurveto
          hintmask 00010000000000000000000100000000
          -2 5 -5 2 -4 2 rrcurveto
          hintmask 00010000000000000000000010101100
          8 4 -2 -2 6 hvcurveto
          hintmask 00000000100010000000000000000000
          1 1 0 -1 1 vvcurveto
          -10 7 -9 0 -6 -1 -10 5 -10 4 -9 3 4 3 rcurveline
          hintmask 00000000010010000000000000000000
          5 2 0 6 1 vvcurveto
          63 18 10 81 24 38 10 13 rcurveline
          0 1 0 -1 1 vhcurveto
          -13 hlineto
          4 13 rlineto
          0 1 2 -2 vhcurveto
          -13 -5 rlineto
          3 -5 -7 2 -7 hhcurveto
          -17 -18 -13 -21 -6 hvcurveto
          hintmask 00000000100010000000000000000000
          -12 -11 -67 -11 -69 -13 rrcurveto
          -13 -84 9 1 -2 hvcurveto
          -3 -2 -4 -3 4 hvcurveto
          18 -17 47 2 13 -13 18 -19 27 -36 40 -14 1 -2 -2 -5 4 -3 rrcurveto
          -3 -2 -1 -1 -1 vvcurveto
          -3 12 -5 11 -9 vhcurveto
          -7 -1 -6 0 -5 -2 rrcurveto
          -1 0 -1 1 -1 vhcurveto
          7 2 8 1 6 -2 7 -1 5 -7 4 -6 rrcurveto
          2 1 0 1 hvcurveto
          -2 6 -4 5 -3 2 8 -1 2 -2 5 -5 rrcurveto
          hintmask 00000100000100000000000000000000
          1 1 1 0 1 vvcurveto
          -7 9 -10 0 -5 1 -25 18 rcurveline
          1 2 0 2 1 vhcurveto
          4 -1 4 6 1 2 rrcurveto
          -1 5 5 0 6 hhcurveto
          545 178 rmoveto
          hintmask 00000000100100000000000000000000
          27 -66 3 -110 4 -75 rrcurveto
          hintmask 00000100000100000000000000000000
          28 -4 17 19 7 26 rrcurveto
          7 18 0 34 21 vvcurveto
          hintmask 00000000100100000000000000000000
          5 23 17 17 7 17 5 -34 20 -13 34 9 -5 30 3 41 5 30 -9 15 -24 8 -26 2 rrcurveto
          -5 -10 -5 -18 -12 vvcurveto
          -5 -16 -9 -19 -15 -27 -2 34 -8 23 -9 17 rrcurveto
          hintmask 00000000100010000000000000000000
          -7 8 -9 5 -11 2 rrcurveto
          hintmask 00100000001000000000010000000000
          -10 2 -13 2 -17 1 rrcurveto
          384 -224 rmoveto
          -17 52 18 94 19 23 -2 -23 -1 -57 12 -46 rrcurveto
          hintmask 00000000001000000000001000000000
          -2 -17 -17 -18 -10 -8 rrcurveto
          183 128 rmoveto
          3 64 12 75 13 51 9 -50 -9 -100 -28 -40 rrcurveto
          -297 44 rmoveto
          hintmask 00000000001000000000010000000000
          5 -8 6 -16 -18 vvcurveto
          -30 -9 -36 -18 -3 vhcurveto
          40 5 37 11 34 vhcurveto
          hintmask 00100000001000000000010000000000
          -646 -165 rmoveto
          hintmask 00000010000000010000000000000000
          -1 vlineto
          -2 2 -1 2 vhcurveto
          1 hlineto
          2 1 1 2 hvcurveto
          1 vlineto
          1 -1 1 2 vvcurveto
          1 -1 -1 1 -1 hhcurveto
          -1 hlineto
          -1 -1 rlineto
          -1 -1 -1 -3 -1 vvcurveto
          -30 -3 rmoveto
          hintmask 00001000000000100000000000000000
          -2 0 -1 1 vhcurveto
          0 0 -1 1 vhcurveto
          4 hlineto
          2 1 1 2 1 hvcurveto
          2 vlineto
          1 -1 -1 1 -2 hhcurveto
          -3 hlineto
          -1 0 0 -1 -1 hvcurveto
          -1 -1 rlineto
          -21 6 rmoveto
          hintmask 00000001000001000000000000000000
          -3 2 -1 3 4 1 1 3 2 -1 1 -4 -3 -2 -1 -2 vhcurveto
          endchar
        </CharString>
        <CharString name="four">
          34 21 -21 159 88 453 -20 hstem
          45 94 208 94 vstem
          347 700 rmoveto
          -182 -217 rlineto
          -79 -101 -41 -86 -93 vvcurveto
          -44 302 -159 94 159 80 88 -80 453 vlineto
          -205 -260 rmoveto
          111 128 rlineto
          -321 -208 vlineto
          8 57 27 51 62 85 rrcurveto
          endchar
        </CharString>
        <CharString name="foursuperior">
          -226 15 88 133 88 313 88 hstem
          -259 94 306 94 -94 242 vstem
          88 596 rmoveto
          -32 -39 -10 -14 -15 -29 rrcurveto
          -7 -15 -3 -14 -13 vvcurveto
          -20 153 -72 66 72 41 51 -41 197 -66 vlineto
          -85 vmoveto
          -112 -82 vlineto
          6 17 16 24 25 29 rrcurveto
          endchar
        </CharString>
        <CharString name="fraction">
          -210 21 -21 700 -20 hstem
          -40 412 vstem
          291 700 rmoveto
          -331 -700 rlineto
          83 hlineto
          329 700 rlineto
          endchar
        </CharString>
        <CharString name="g">
          58 -228 84 144 84 312 84 hstem
          45 90 300 90 vstem
          283 hmoveto
          38 40 9 21 38 hvcurveto
          90 vlineto
          -25 -35 -41 -11 -40 hhcurveto
          -77 -71 53 98 96 59 65 96 hvcurveto
          145 -392 hlineto
          -76 -41 -35 -27 -15 vhcurveto
          -15 -25 -36 -7 -64 hhcurveto
          -103 -84 112 hlineto
          43 54 4 28 54 hvcurveto
          50 31 73 52 127 vvcurveto
          466 -235 vlineto
          -139 -106 -106 -139 -141 111 -94 127 hvcurveto
          endchar
        </CharString>
        <CharString name="germandbls">
          -20 0 84 312 84 136 84 hstemhm
          67 90 52 90 48 90 -51 90 hintmask 11111010
          -1 396 rmoveto
          68 -396 90 448 hlineto
          125 53 43 71 vhcurveto
          hintmask 11111100
          43 23 -32 -32 -54 -53 -24 -36 -34 hvcurveto
          -30 -28 -19 -30 -32 vvcurveto
          hintmask 11111010
          -129 177 27 -94 vvcurveto
          -32 -9 -38 -65 vhcurveto
          -93 -84 93 hlineto
          145 19 84 70 hvcurveto
          165 -177 -30 61 vvcurveto
          15 6 8 11 9 vhcurveto
          hintmask 11111100
          61 47 60 47 76 vvcurveto
          76 -55 72 -101 -123 -91 -82 -138 vhcurveto
          -28 hlineto
          endchar
        </CharString>
        <CharString name="grave">
          -282 525 190 hstem
          35 180 vstem
          215 567 rmoveto
          -118 148 -62 -62 128 -128 rlineto
          endchar
        </CharString>
        <CharString name="greater">
          -70 45 390 hstem
          65 362 vstem
          65 125 rmoveto
          -80 vlineto
          362 160 rlineto
          70 vlineto
          -362 160 rlineto
          -80 vlineto
          265 -115 rlineto
          endchar
        </CharString>
        <CharString name="guillemotleft">
          -51 86 308 hstem
          55 411 vstem
          151 240 rmoveto
          125 154 rlineto
          -96 hlineto
          -125 -154 125 -154 rlineto
          96 hlineto
          65 154 rmoveto
          125 154 rlineto
          -96 hlineto
          -125 -154 125 -154 rlineto
          96 hlineto
          endchar
        </CharString>
        <CharString name="guillemotright">
          -51 86 308 hstem
          15 411 vstem
          140 240 rmoveto
          -125 -154 rlineto
          96 hlineto
          125 154 -125 154 rlineto
          -96 hlineto
          315 -154 rmoveto
          -125 -154 rlineto
          96 hlineto
          125 154 -125 154 rlineto
          -96 hlineto
          endchar
        </CharString>
        <CharString name="guilsinglleft">
          -241 86 308 hstem
          55 221 vstem
          151 240 rmoveto
          125 154 rlineto
          -96 hlineto
          -125 -154 125 -154 rlineto
          96 hlineto
          endchar
        </CharString>
        <CharString name="guilsinglright">
          -241 86 308 hstem
          15 221 vstem
          140 240 rmoveto
          -125 -154 rlineto
          96 hlineto
          125 154 -125 154 rlineto
          -96 hlineto
          endchar
        </CharString>
        <CharString name="h">
          -14 21 -21 396 84 220 -20 hstem
          60 88 222 88 vstem
          148 700 rmoveto
          -88 -700 88 396 114 hlineto
          104 4 -82 -44 hvcurveto
          -270 88 271 vlineto
          70 -3 63 -63 43 vhcurveto
          31 -45 -63 2 -51 hhcurveto
          -85 hlineto
          endchar
        </CharString>
        <CharString name="hryvnia">
          -5 0 88 154 78 60 78 154 88 hstem
          110 99 114 99 vstem
          56 458 rmoveto
          -78 420 78 -57 vlineto
          2 13 1 14 16 vvcurveto
          142 -128 53 -82 3 vhcurveto
          1 -14 -13 0 -13 hhcurveto
          -76 -88 73 hlineto
          85 69 -35 -77 -16 -3 -14 -6 -12 hvcurveto
          162 -216 rmoveto
          78 -420 -78 57 vlineto
          -2 -13 -1 -15 -15 vvcurveto
          -142 128 -53 82 -3 vhcurveto
          -1 14 13 0 13 hhcurveto
          76 88 -73 hlineto
          -85 -69 35 77 16 3 14 6 12 hvcurveto
          endchar
        </CharString>
        <CharString name="hyphen">
          -242 200 80 hstem
          33 224 vstem
          257 200 rmoveto
          80 -224 -80 vlineto
          endchar
        </CharString>
        <CharString name="i">
          -268 21 -21 396 84 84 106 hstemhm
          85 106 -89 88 hintmask 11101000
          190 hmoveto
          480 -130 vlineto
          -40 -84 rlineto
          82 -396 hlineto
          hintmask 11110000
          -17 617 rmoveto
          -23 14 -30 39 39 14 30 23 23 -14 30 -39 -39 -14 -30 -23 vhcurveto
          endchar
        </CharString>
        <CharString name="iacute">
          -268 21 -21 396 84 hstem
          102 88 vstem
          190 hmoveto
          480 -130 vlineto
          -40 -84 rlineto
          82 -396 hlineto
          22 525 rmoveto
          128 128 -62 62 -118 -148 rlineto
          endchar
        </CharString>
        <CharString name="icircumflex">
          -268 21 -21 396 84 78 142 -48 48 hstemhm
          102 88 hintmask 11101000
          190 hmoveto
          480 -130 vlineto
          -40 -84 rlineto
          82 -396 hlineto
          hintmask 11011000
          30 652 rmoveto
          hintmask 11101000
          80 -94 rlineto
          81 hlineto
          -110 142 rlineto
          -101 hlineto
          -110 -142 rlineto
          81 hlineto
          endchar
        </CharString>
        <CharString name="idieresis">
          -268 21 -21 396 84 88 112 hstemhm
          -14 112 4 88 -24 112 hintmask 11101000
          190 hmoveto
          480 -130 vlineto
          -40 -84 rlineto
          82 -396 hlineto
          hintmask 11110100
          -116 624 rmoveto
          -32 24 -24 32 32 24 24 32 32 -24 24 -32 -32 -24 -24 -32 vhcurveto
          180 hmoveto
          -32 24 -24 32 32 24 24 32 32 -24 24 -32 -32 -24 -24 -32 vhcurveto
          endchar
        </CharString>
        <CharString name="igrave">
          -268 21 -21 396 84 hstem
          102 88 vstem
          190 hmoveto
          480 -130 vlineto
          -40 -84 rlineto
          82 -396 hlineto
          80 567 rmoveto
          -118 148 -62 -62 128 -128 rlineto
          endchar
        </CharString>
        <CharString name="j">
          -294 -228 84 540 84 84 106 hstemhm
          59 106 -89 88 hintmask 11101000
          164 480 rmoveto
          -130 hlineto
          -40 -84 rlineto
          82 -434 hlineto
          -99 -53 -7 -63 vhcurveto
          -84 vlineto
          149 55 51 139 hvcurveto
          hintmask 11110000
          -105 655 rmoveto
          -23 14 -30 39 39 14 30 23 23 -14 30 -39 -39 -14 -30 -23 vhcurveto
          endchar
        </CharString>
        <CharString name="k">
          -52 21 -21 213 76 191 -20 240 -20 hstem
          60 88 199 88 vstem
          336 480 rmoveto
          -104 -191 -28 4 -28 0 -28 -4 rlinecurve
          411 -88 -700 88 210 vlineto
          2 16 16 1 15 hhcurveto
          97 55 -51 -89 hvcurveto
          -73 88 72 vlineto
          88 -26 85 -97 26 vhcurveto
          121 209 rlineto
          endchar
        </CharString>
        <CharString name="l">
          -262 0 84 616 -20 hstem
          60 90 vstem
          60 190 rmoveto
          -139 56 -51 149 vhcurveto
          84 vlineto
          -63 -52 7 99 hvcurveto
          510 -90 vlineto
          endchar
        </CharString>
        <CharString name="less">
          -70 45 390 hstem
          35 362 vstem
          132 240 rmoveto
          265 115 rlineto
          80 vlineto
          -362 -160 rlineto
          -70 vlineto
          362 -160 rlineto
          80 vlineto
          endchar
        </CharString>
        <CharString name="logicalnot">
          250 78 hstem
          452 78 vstem
          452 112 rmoveto
          78 216 -480 -78 402 hlineto
          endchar
        </CharString>
        <CharString name="m">
          217 21 -21 396 84 hstem
          65 88 175 88 185 88 vstem
          65 480 rmoveto
          -480 88 396 175 -396 88 396 41 vlineto
          43 30 0 -13 24 hvcurveto
          43 -23 4 -43 -37 vvcurveto
          -280 88 280 vlineto
          64 -6 69 -64 40 vhcurveto
          22 -34 -43 5 -36 hhcurveto
          endchar
        </CharString>
        <CharString name="macron">
          -242 572 68 hstem
          -10 310 vstem
          300 572 rmoveto
          68 -310 -68 vlineto
          endchar
        </CharString>
        <CharString name="minus">
          201 78 hstem
          50 480 vstem
          530 201 rmoveto
          78 -480 -78 vlineto
          endchar
        </CharString>
        <CharString name="mu">
          -34 -206 -21 226 85 -84 84 396 -20 hstemhm
          47 88 216 88 hintmask 10111100
          243 84 rmoveto
          -104 -4 102 44 hvcurveto
          250 -88 -707 88 284 vlineto
          -39 29 36 -18 43 hhcurveto
          43 36 18 39 29 hvcurveto
          hintmask 11011100
          -58 88 481 -88 -264 vlineto
          hintmask 10111100
          -46 -15 -86 -93 vhcurveto
          endchar
        </CharString>
        <CharString name="multiply">
          21 -21 480 -20 hstem
          50 480 vstem
          290 185 rmoveto
          185 -185 55 55 -185 185 185 185 -55 55 -185 -185 -185 185 -55 -55 185 -185 -185 -185 55 -55 rlineto
          endchar
        </CharString>
        <CharString name="n">
          -9 21 -21 396 84 hstem
          65 88 222 88 vstem
          65 480 rmoveto
          -480 88 396 114 vlineto
          104 4 -82 -44 hvcurveto
          -270 88 271 vlineto
          70 -3 63 -63 43 vhcurveto
          31 -45 -63 2 -51 hhcurveto
          endchar
        </CharString>
        <CharString name="nbspace">
          -299 endchar
        </CharString>
        <CharString name="nine">
          37 0 88 168 87 283 84 hstem
          45 99 275 95 vstem
          45 475 rmoveto
          -137 2 78 -82 126 hhcurveto
          32 34 6 12 32 hvcurveto
          81 vlineto
          -9 -33 -31 -3 -28 hhcurveto
          -75 -33 44 88 -5 hvcurveto
          104 49 47 70 107 49 -78 -198 -161 -100 -101 -138 vhcurveto
          -70 -88 58 hlineto
          201 144 137 213 251 -76 109 -178 -128 -87 -88 -147 hvcurveto
          endchar
        </CharString>
        <CharString name="noBreak">
          -532 endchar
        </CharString>
        <CharString name="nonmarkingreturn">
          -532 endchar
        </CharString>
        <CharString name="ntilde">
          -9 21 -21 396 84 81 68 -28 68 hstemhm
          65 88 222 88 -74 51 hintmask 11101100
          65 480 rmoveto
          -480 88 396 114 vlineto
          104 4 -82 -44 hvcurveto
          -270 88 271 vlineto
          70 -3 63 -63 43 vhcurveto
          31 -45 -63 2 -51 hhcurveto
          hintmask 11101010
          151 196 rmoveto
          -24 -19 -23 -30 -25 -26 12 9 -21 vhcurveto
          hintmask 11011100
          12 -32 -22 7 -27 hhcurveto
          -76 -26 -65 -50 -3 hvcurveto
          51 hlineto
          31 5 19 16 24 hhcurveto
          16 17 -7 -9 25 hvcurveto
          hintmask 11101010
          -9 19 49 -15 25 hhcurveto
          58 47 51 64 3 hvcurveto
          endchar
        </CharString>
        <CharString name="numbersign">
          70 21 -21 214 64 144 64 214 -20 hstem
          55 492 vstem
          518 278 rmoveto
          -91 hlineto
          20 144 rlineto
          97 hlineto
          3 64 rlineto
          -91 hlineto
          30 214 rlineto
          -72 hlineto
          -30 -214 rlineto
          -119 hlineto
          30 214 rlineto
          -72 hlineto
          -30 -214 rlineto
          -106 hlineto
          -3 -64 rlineto
          100 hlineto
          -20 -144 rlineto
          -106 hlineto
          -3 -64 rlineto
          100 hlineto
          -30 -214 rlineto
          72 hlineto
          30 214 rlineto
          119 hlineto
          -30 -214 rlineto
          72 hlineto
          30 214 rlineto
          97 hlineto
          -140 208 rmoveto
          -20 -144 rlineto
          -119 hlineto
          20 144 rlineto
          endchar
        </CharString>
        <CharString name="o">
          -10 84 332 84 hstem
          45 90 310 90 vstem
          290 406 rmoveto
          96 59 -70 -96 -96 -59 -70 -96 -93 -62 67 99 99 62 67 93 hvcurveto
          84 vmoveto
          -139 -106 -111 -139 -139 106 -111 139 139 106 111 139 139 -106 111 -139 hvcurveto
          endchar
        </CharString>
        <CharString name="oacute">
          -10 84 332 84 hstem
          45 90 310 90 vstem
          290 406 rmoveto
          96 59 -70 -96 -96 -59 -70 -96 -93 -62 67 99 99 62 67 93 hvcurveto
          84 vmoveto
          -139 -106 -111 -139 -139 106 -111 139 139 106 111 139 139 -106 111 -139 hvcurveto
          12 35 rmoveto
          128 128 -62 62 -118 -148 rlineto
          endchar
        </CharString>
        <CharString name="ocircumflex">
          -10 84 332 84 68 142 -48 48 hstemhm
          45 90 310 90 hintmask 11101100
          290 406 rmoveto
          96 59 -70 -96 -96 -59 -70 -96 -93 -62 67 99 99 62 67 93 hvcurveto
          84 vmoveto
          -139 -106 -111 -139 -139 106 -111 139 139 106 111 139 139 -106 111 -139 hvcurveto
          hintmask 11011100
          -1 162 rmoveto
          hintmask 11101100
          80 -94 rlineto
          81 hlineto
          -110 142 rlineto
          -101 hlineto
          -110 -142 rlineto
          81 hlineto
          endchar
        </CharString>
        <CharString name="odieresis">
          -10 84 332 84 78 112 hstemhm
          45 90 9 112 68 112 9 90 hintmask 11010010
          290 406 rmoveto
          96 59 -70 -96 -96 -59 -70 -96 -93 -62 67 99 99 62 67 93 hvcurveto
          84 vmoveto
          -139 -106 -111 -139 -139 106 -111 139 139 106 111 139 139 -106 111 -139 hvcurveto
          hintmask 11111110
          -146 134 rmoveto
          -32 24 -24 32 32 24 24 32 32 -24 24 -32 -32 -24 -24 -32 vhcurveto
          180 hmoveto
          -32 24 -24 32 32 24 24 32 32 -24 24 -32 -32 -24 -24 -32 vhcurveto
          endchar
        </CharString>
        <CharString name="oe">
          362 -10 84 108 77 147 84 -80 80 hstemhm
          38 90 310 83 234 93 hintmask 11101110
          678 490 rmoveto
          -89 3 -68 -32 -46 -65 rrcurveto
          63 -49 -64 31 -79 hhcurveto
          -69 -59 -24 -49 -47 hvcurveto
          -47 -48 -23 -59 -70 vvcurveto
          -70 23 -59 47 -49 vhcurveto
          -48 47 59 -24 69 hhcurveto
          79 64 31 61 48 hvcurveto
          -61 45 68 -31 91 hhcurveto
          63 54 19 37 46 hvcurveto
          -60 59 rlineto
          -21 -27 -34 -10 -42 hhcurveto
          -93 -64 67 99 hvcurveto
          hintmask 11011110
          47 13 40 27 33 vhcurveto
          33 27 38 17 47 hhcurveto
          48 34 -21 -41 -64 -30 -25 -89 hvcurveto
          -48 -77 41 hlineto
          146 73 56 111 hvcurveto
          hintmask 11101110
          89 -57 47 -113 5 vhcurveto
          -395 -84 rmoveto
          95 60 -69 -97 -97 -60 -69 -95 -93 -62 67 99 99 62 67 93 hvcurveto
          endchar
        </CharString>
        <CharString name="ograve">
          -10 84 332 84 hstem
          45 90 310 90 vstem
          290 406 rmoveto
          96 59 -70 -96 -96 -59 -70 -96 -93 -62 67 99 99 62 67 93 hvcurveto
          84 vmoveto
          -139 -106 -111 -139 -139 106 -111 139 139 106 111 139 139 -106 111 -139 hvcurveto
          50 77 rmoveto
          -118 148 -62 -62 128 -128 rlineto
          endchar
        </CharString>
        <CharString name="one">
          -214 21 -21 606 94 hstem
          154 94 vstem
          248 hmoveto
          700 -181 vlineto
          -42 -94 rlineto
          129 -606 hlineto
          endchar
        </CharString>
        <CharString name="onehalf">
          142 -390 88 313 88 -84 88 129 88 -84 88 313 88 hstem
          -196 94 90 242 -94 94 -26 94 -94 242 90 94 vstem
          185 380 rmoveto
          320 -111 vlineto
          -19 -63 rlineto
          59 -257 hlineto
          505 -317 rmoveto
          -134 hlineto
          29 27 17 15 15 14 13 13 rlinecurve
          41 41 12 19 35 vvcurveto
          61 -38 42 -64 -51 -39 -21 -42 -27 vhcurveto
          56 -33 rlineto
          25 12 19 12 26 hhcurveto
          28 13 -18 -24 -27 -3 -10 -27 -24 hvcurveto
          -63 -57 -10 -9 -11 -14 -11 -17 rlinecurve
          -11 -17 -5 -17 -17 vvcurveto
          -20 213 vlineto
          -170 700 rmoveto
          -331 -700 rlineto
          83 hlineto
          329 700 rlineto
          endchar
        </CharString>
        <CharString name="onequarter">
          137 -363 88 133 88 69 88 133 88 -65 88 290 88 hstem
          -196 94 176 94 36 94 -94 242 28 94 -94 242 vstem
          449 700 rmoveto
          -331 -700 rlineto
          83 hlineto
          329 700 rlineto
          -345 -320 rmoveto
          320 -111 vlineto
          -19 -63 rlineto
          59 -257 hlineto
          307 -162 rmoveto
          -32 -39 -10 -14 -15 -29 rrcurveto
          -7 -15 -3 -14 -13 vvcurveto
          -20 153 -72 66 72 41 51 -41 197 -66 vlineto
          -85 vmoveto
          -112 -82 vlineto
          6 17 16 24 25 29 rrcurveto
          endchar
        </CharString>
        <CharString name="onesuperior">
          -287 15 88 133 88 313 88 hstem
          -196 94 306 94 -94 242 vstem
          185 380 rmoveto
          320 -111 vlineto
          -19 -63 rlineto
          59 -257 hlineto
          endchar
        </CharString>
        <CharString name="ordfeminine">
          -175 380 66 78 55 55 66 hstemhm
          39 66 -38 139 39 66 hintmask 11110100
          hintmask 11101100
          206 571 rmoveto
          5 -12 -12 3 -19 hhcurveto
          hintmask 11110100
          -66 -58 -31 -69 -66 51 -33 73 hvcurveto
          148 196 hlineto
          81 -48 43 -86 vhcurveto
          hintmask 11101100
          -110 -66 110 hlineto
          44 24 -20 -38 hvcurveto
          -130 vlineto
          hintmask 11110100
          -82 hlineto
          -37 -21 8 25 32 25 13 33 hvcurveto
          hintmask 11101100
          14 14 -3 -5 15 hvcurveto
          endchar
        </CharString>
        <CharString name="ordmasculine">
          -107 370 74 191 74 hstem
          55 74 184 74 vstem
          221 709 rmoveto
          -94 -72 -76 -94 -94 72 -75 94 94 72 75 94 94 -72 76 -94 hvcurveto
          -74 vmoveto
          52 40 -44 -52 -52 -40 -43 -52 -52 -40 43 52 52 40 44 52 hvcurveto
          endchar
        </CharString>
        <CharString name="oslash">
          34 -10 84 332 84 hstem
          38 90 310 90 vstem
          283 490 rmoveto
          -139 -106 -111 -139 -64 22 -57 37 -44 hvcurveto
          -68 -90 rlineto
          90 hlineto
          32 42 rlineto
          -24 38 45 -13 49 hhcurveto
          139 106 111 139 66 -24 60 -41 44 hvcurveto
          74 97 rlineto
          -89 hlineto
          -40 -51 rlineto
          22 -36 -43 12 -46 hhcurveto
          155 -250 rmoveto
          -96 -59 -70 -96 -28 -25 5 11 -21 vhcurveto
          196 257 rlineto
          21 -28 12 -37 -42 vvcurveto
          -155 166 rmoveto
          25 22 -5 -9 20 hvcurveto
          -194 -253 rlineto
          -18 27 -10 34 40 vvcurveto
          99 62 67 93 vhcurveto
          endchar
        </CharString>
        <CharString name="otilde">
          -10 84 332 84 71 68 -28 68 hstemhm
          45 90 283 51 -24 90 hintmask 11101010
          290 406 rmoveto
          96 59 -70 -96 -96 -59 -70 -96 -93 -62 67 99 99 62 67 93 hvcurveto
          84 vmoveto
          -139 -106 -111 -139 -139 106 -111 139 139 106 111 139 139 -106 111 -139 hvcurveto
          hintmask 11101100
          128 186 rmoveto
          -24 -19 -23 -30 -25 -26 12 9 -21 vhcurveto
          hintmask 11011010
          12 -32 -22 7 -27 hhcurveto
          -76 -26 -65 -50 -3 hvcurveto
          51 hlineto
          31 5 19 16 24 hhcurveto
          16 17 -7 -9 25 hvcurveto
          hintmask 11101100
          -9 19 49 -15 25 hhcurveto
          58 47 51 64 3 hvcurveto
          endchar
        </CharString>
        <CharString name="p">
          63 -207 -21 218 84 332 84 hstem
          60 90 310 90 vstem
          60 -228 rmoveto
          90 468 hlineto
          99 62 67 93 96 59 -70 -96 -96 -59 -70 -99 -40 -41 11 25 -35 vhcurveto
          -90 vlineto
          -19 35 40 -11 44 hhcurveto
          139 106 111 139 139 -106 111 -139 -139 -106 -111 -139 hvcurveto
          endchar
        </CharString>
        <CharString name="paragraph">
          64 21 -21 612 88 hstem
          286 84 67 84 vstem
          521 700 rmoveto
          -237 hlineto
          -99 -140 -18 -160 -51 22 -125 204 hvcurveto
          15 -346 84 612 67 -612 84 hlineto
          endchar
        </CharString>
        <CharString name="parenleft">
          -146 708 -20 hstem
          75 88 vstem
          341 -78 rmoveto
          -64 51 -114 115 232 vvcurveto
          211 98 116 80 61 vhcurveto
          -50 54 rlineto
          -165 -123 -51 -183 -141 vvcurveto
          -145 51 -182 169 -126 vhcurveto
          endchar
        </CharString>
        <CharString name="parenright">
          -146 702 -20 hstem
          223 88 vstem
          45 702 rmoveto
          64 -51 114 -113 -234 vvcurveto
          -211 -98 -113 -80 -64 vhcurveto
          50 -54 rlineto
          165 123 51 183 141 vvcurveto
          144 -53 184 -167 125 vhcurveto
          endchar
        </CharString>
        <CharString name="percent">
          366 4 78 -61 -21 254 78 52 78 172 78 -12 -20 hstemhm
          75 78 172 78 92 78 172 78 hintmask 0111011111000000
          495 168 rmoveto
          hintmask 1011011111000000
          -93 75 -71 89 89 75 71 93 93 -75 71 -89 vhcurveto
          hintmask 0111011111000000
          -89 -75 -71 -93 hvcurveto
          hintmask 1011101111000000
          78 hmoveto
          51 40 35 45 47 40 -36 -50 -51 -39 -35 -47 -47 -39 35 51 vhcurveto
          -498 380 rmoveto
          -93 75 -71 89 89 75 71 93 93 -75 71 -89 -89 -75 -71 -93 vhcurveto
          78 hmoveto
          51 40 35 45 47 40 -36 -50 -51 -39 -35 -47 -47 -39 35 51 vhcurveto
          hintmask 0111011111000000
          408 152 rmoveto
          -331 -700 rlineto
          83 hlineto
          329 700 rlineto
          endchar
        </CharString>
        <CharString name="period">
          -363 -10 124 hstem
          10 124 vstem
          10 52 rmoveto
          -35 27 -27 35 35 27 27 35 35 -27 27 -35 -35 -27 -27 -35 vhcurveto
          endchar
        </CharString>
        <CharString name="periodcentered">
          -338 300 124 hstem
          35 124 vstem
          35 362 rmoveto
          -35 27 -27 35 35 27 27 35 35 -27 27 -35 -35 -27 -27 -35 vhcurveto
          endchar
        </CharString>
        <CharString name="plus">
          21 -21 201 78 201 -20 hstem
          251 78 vstem
          251 279 rmoveto
          -201 -78 201 -201 78 201 201 78 -201 201 -78 hlineto
          endchar
        </CharString>
        <CharString name="plusminus">
          0 78 179 78 145 -20 hstem
          251 78 vstem
          251 335 rmoveto
          -201 -78 201 -145 78 145 201 78 -201 145 -78 hlineto
          -201 -480 rmoveto
          480 78 -480 hlineto
          endchar
        </CharString>
        <CharString name="q">
          49 -207 -21 218 84 332 84 hstem
          45 90 310 90 vstem
          535 240 rmoveto
          172 -106 78 -139 -139 -106 -111 -139 -139 106 -111 139 38 40 9 21 38 vhcurveto
          90 vlineto
          -25 -35 -41 -11 -40 hhcurveto
          -96 -59 70 96 96 59 70 96 93 62 -47 -119 hvcurveto
          -468 90 vlineto
          endchar
        </CharString>
        <CharString name="question">
          -4 -10 124 479 86 hstemhm
          75 87 34 124 -113 97 57 92 hintmask 11101100
          193 430 rmoveto
          -22 21 -9 28 20 vvcurveto
          62 47 32 49 51 52 -36 -71 -61 -65 -66 -52 -65 vhcurveto
          -23 -29 -14 -19 -45 vvcurveto
          97 hlineto
          84 149 81 131 vvcurveto
          124 -94 58 -95 -99 -90 -65 -111 -42 7 -52 53 -38 vhcurveto
          hintmask 11110100
          61 -319 rmoveto
          -35 27 -27 35 35 27 27 35 35 -27 27 -35 -35 -27 -27 -35 vhcurveto
          endchar
        </CharString>
        <CharString name="questiondown">
          -4 -210 86 489 124 hstemhm
          75 87 34 124 -113 97 57 92 hintmask 11101100
          135 98 rmoveto
          -53 -38 -7 -52 -42 vvcurveto
          -111 90 -65 99 95 94 58 124 vhcurveto
          131 -149 81 84 vvcurveto
          -97 hlineto
          -45 14 -19 23 -29 vhcurveto
          52 -65 65 -66 -61 vvcurveto
          -71 -52 -36 -51 -49 -47 32 62 20 9 28 22 21 vhcurveto
          hintmask 11110100
          3 388 rmoveto
          -35 27 -27 35 35 27 27 35 35 -27 27 -35 -35 -27 -27 -35 vhcurveto
          endchar
        </CharString>
        <CharString name="quotedbl">
          -234 480 220 hstem
          40 78 62 78 vstem
          35 700 rmoveto
          10 -220 rlineto
          68 hlineto
          10 220 rlineto
          52 hmoveto
          10 -220 rlineto
          68 hlineto
          10 220 rlineto
          endchar
        </CharString>
        <CharString name="quotedblbase">
          -106 0 84 hstemhm
          10 381 -313 103 107 103 hintmask 11000000
          hintmask 10110000
          84 -155 rmoveto
          52 53 45 72 114 vvcurveto
          -131 hlineto
          -40 -84 rlineto
          68 hlineto
          -5 -38 -12 -32 -27 -53 rrcurveto
          260 -32 rmoveto
          52 53 45 72 114 vvcurveto
          -131 hlineto
          -40 -84 rlineto
          68 hlineto
          -5 -38 -12 -32 -27 -53 rrcurveto
          endchar
        </CharString>
        <CharString name="quotedblleft">
          -41 616 84 hstemhm
          55 103 -103 381 -171 103 hintmask 10100000
          hintmask 11010000
          152 855 rmoveto
          -52 -53 -45 -72 -114 vvcurveto
          131 hlineto
          40 84 rlineto
          -68 hlineto
          5 38 12 32 27 53 rrcurveto
          160 32 rmoveto
          -52 -53 -45 -72 -114 vvcurveto
          131 hlineto
          40 84 rlineto
          -68 hlineto
          5 38 12 32 27 53 rrcurveto
          endchar
        </CharString>
        <CharString name="quotedblright">
          -41 700 84 hstemhm
          55 381 -313 103 107 103 hintmask 11000000
          hintmask 10110000
          129 545 rmoveto
          52 53 45 72 114 vvcurveto
          -131 hlineto
          -40 -84 rlineto
          68 hlineto
          -5 -38 -12 -32 -27 -53 rrcurveto
          260 -32 rmoveto
          52 53 45 72 114 vvcurveto
          -131 hlineto
          -40 -84 rlineto
          68 hlineto
          -5 -38 -12 -32 -27 -53 rrcurveto
          endchar
        </CharString>
        <CharString name="quoteleft">
          -251 616 84 hstemhm
          55 103 -103 171 hintmask 10100000
          hintmask 11000000
          152 855 rmoveto
          -52 -53 -45 -72 -114 vvcurveto
          131 hlineto
          40 84 rlineto
          -68 hlineto
          5 38 12 32 27 53 rrcurveto
          endchar
        </CharString>
        <CharString name="quoteright">
          -251 700 84 hstemhm
          55 171 -103 103 hintmask 11000000
          hintmask 10100000
          129 545 rmoveto
          52 53 45 72 114 vvcurveto
          -131 hlineto
          -40 -84 rlineto
          68 hlineto
          -5 -38 -12 -32 -27 -53 rrcurveto
          endchar
        </CharString>
        <CharString name="quotesinglbase">
          -316 0 84 hstemhm
          10 171 -103 103 hintmask 11000000
          hintmask 10100000
          84 -155 rmoveto
          52 53 45 72 114 vvcurveto
          -131 hlineto
          -40 -84 rlineto
          68 hlineto
          -5 -38 -12 -32 -27 -53 rrcurveto
          endchar
        </CharString>
        <CharString name="quotesingle">
          -374 480 220 hstem
          40 78 vstem
          35 700 rmoveto
          10 -220 rlineto
          68 hlineto
          10 220 rlineto
          endchar
        </CharString>
        <CharString name="r">
          -186 21 -21 396 84 hstem
          45 88 vstem
          45 hmoveto
          88 273 hlineto
          27 0 45 19 24 vhcurveto
          27 23 29 0 31 hhcurveto
          106 84 -88 hlineto
          -61 -59 -1 -47 -45 hvcurveto
          -43 -44 0 -73 -42 vvcurveto
          endchar
        </CharString>
        <CharString name="registered">
          283 -12 64 263 69 111 69 84 64 hstemhm
          55 70 141 73 128 73 -66 73 146 70 hintmask 1111110110000000
          339 141 rmoveto
          272 vlineto
          17 2 65 62 vhcurveto
          hintmask 1111111010000000
          40 24 -23 -31 -27 -17 -30 -55 hvcurveto
          -25 -69 hlineto
          hintmask 1111110110000000
          41 hlineto
          28 35 -5 -57 hvcurveto
          -112 73 128 vlineto
          31 -7 36 -38 19 vhcurveto
          hintmask 1111111010000000
          25 21 13 27 34 vvcurveto
          80 -65 47 -71 -99 -39 -73 -88 vhcurveto
          -262 vlineto
          -211 209 rmoveto
          -211 162 -151 192 192 162 151 211 211 -162 151 -192 -192 -162 -151 -211 vhcurveto
          70 hmoveto
          160 115 138 169 169 115 -138 -160 -162 -117 -136 -167 -169 -115 136 162 vhcurveto
          endchar
        </CharString>
        <CharString name="ring">
          -266 526 50 95 51 hstem
          35 50 95 51 vstem
          35 624 rmoveto
          -56 42 -42 56 56 42 42 56 56 -42 42 -56 -56 -42 -42 -56 vhcurveto
          50 hmoveto
          27 21 20 27 27 20 -20 -27 -27 -20 -21 -27 -27 -21 21 27 vhcurveto
          endchar
        </CharString>
        <CharString name="ruble">
          35 0 204 -78 78 51 88 279 88 hstemhm
          65 94 274 99 hintmask 01111100
          hintmask 10111100
          159 hmoveto
          hintmask 01111100
          126 261 78 -261 51 119 vlineto
          118 136 56 172 125 -80 102 -155 -138 -94 -90 -160 hvcurveto
          -117 -65 -88 65 -51 -65 -78 65 vlineto
          hintmask 10111100
          -126 vlineto
          94 343 rmoveto
          121 vlineto
          92 49 66 88 92 45 -61 -76 -79 -52 -63 -92 vhcurveto
          endchar
        </CharString>
        <CharString name="s">
          -79 0 84 312 84 hstem
          55 90 178 90 vstem
          393 480 rmoveto
          -177 hlineto
          -82 -79 -39 -87 hvcurveto
          -174 268 44 -90 vvcurveto
          -26 -20 -24 -74 vhcurveto
          -173 -84 173 hlineto
          145 39 64 70 105 -74 12 -86 29 hvcurveto
          -49 16 -59 10 48 vvcurveto
          29 35 13 36 vhcurveto
          177 hlineto
          endchar
        </CharString>
        <CharString name="section">
          -39 -55 84 393 41 165 84 hstemhm
          68 83 -60 90 146 90 -64 85 hintmask 10110010
          421 712 rmoveto
          -173 hlineto
          hintmask 11101010
          -116 -41 -60 -60 -57 29 -37 60 -35 hvcurveto
          hintmask 11110100
          -65 -1 -47 -49 -68 vvcurveto
          -90 80 -53 61 -35 vhcurveto
          58 -32 60 -18 -48 vvcurveto
          -32 -29 -8 -25 vhcurveto
          -218 -84 204 hlineto
          131 27 74 48 47 -28 45 -49 27 hvcurveto
          hintmask 11101010
          64 11 34 51 61 vvcurveto
          86 -59 52 -80 45 vhcurveto
          -57 33 -61 20 46 vvcurveto
          37 40 0 15 vhcurveto
          185 hlineto
          -170 -211 rmoveto
          45 -13 57 -48 -53 vvcurveto
          -49 -38 -21 -32 vhcurveto
          hintmask 11110010
          -44 -88 56 62 41 27 30 43 hvcurveto
          hintmask 11101010
          9 10 -2 -3 11 hvcurveto
          endchar
        </CharString>
        <CharString name="semicolon">
          -275 0 84 276 124 hstemhm
          47 124 -93 103 hintmask 11100000
          hintmask 11010000
          84 -155 rmoveto
          52 53 45 72 114 vvcurveto
          -131 hlineto
          -40 -84 rlineto
          68 hlineto
          -5 -38 -12 -32 -27 -53 rrcurveto
          hintmask 11100000
          13 545 rmoveto
          -35 27 -27 35 35 27 27 35 35 -27 27 -35 -35 -27 -27 -35 vhcurveto
          endchar
        </CharString>
        <CharString name="seven">
          -83 21 -21 612 88 hstem
          115 98 vstem
          414 700 rmoveto
          -399 -88 302 hlineto
          -35 -199 -167 -89 -280 vvcurveto
          -44 98 44 vlineto
          295 201 64 276 vvcurveto
          endchar
        </CharString>
        <CharString name="six">
          37 -10 84 283 87 168 88 hstem
          45 95 275 99 vstem
          514 225 rmoveto
          137 -2 -78 82 -126 hhcurveto
          -32 -34 -6 -12 -32 hvcurveto
          -81 vlineto
          9 33 31 3 28 hhcurveto
          75 33 -44 -88 5 hvcurveto
          -104 -49 -47 -70 -107 -49 78 198 161 100 101 138 vhcurveto
          70 88 -58 hlineto
          -201 -144 -137 -213 -251 76 -109 178 128 87 88 147 hvcurveto
          endchar
        </CharString>
        <CharString name="slash">
          -180 11 -21 720 -20 hstem
          -30 412 vstem
          382 710 rmoveto
          -88 hlineto
          -324 -720 rlineto
          88 hlineto
          endchar
        </CharString>
        <CharString name="space">
          -299 endchar
        </CharString>
        <CharString name="sterling">
          16 0 88 234 88 214 88 hstem
          123 94 233 94 vstem
          385 410 rmoveto
          -168 87 hlineto
          88 54 39 63 37 34 -14 -7 17 vhcurveto
          31 85 rlineto
          11 -25 -44 13 -52 hhcurveto
          -132 -77 -92 -131 hvcurveto
          -79 -66 -88 66 -133 vlineto
          -60 -12 -41 -52 vhcurveto
          -15 -88 310 hlineto
          115 75 87 127 hvcurveto
          67 -94 -74 vlineto
          -71 -51 -48 -73 vhcurveto
          -143 hlineto
          36 35 -2 39 35 vvcurveto
          125 168 vlineto
          endchar
        </CharString>
        <CharString name="t">
          -173 0 84 312 84 hstem
          99 90 vstem
          10 396 rmoveto
          89 -206 hlineto
          -139 76 -51 149 vhcurveto
          84 vlineto
          -63 -72 7 99 hvcurveto
          206 135 84 -135 95 vlineto
          endchar
        </CharString>
        <CharString name="thorn">
          -208 -21 219 84 332 84 211 -20 hstem
          55 90 312 89 vstem
          145 -229 rmoveto
          635 145 vlineto
          110 57 -70 -96 -98 -67 -68 -93 -40 -41 11 25 -35 hvcurveto
          -90 vlineto
          -21 38 40 -9 38 hhcurveto
          140 109 109 141 147 -101 103 -155 hvcurveto
          -145 211 -90 -930 hlineto
          endchar
        </CharString>
        <CharString name="three">
          0 -10 88 528 94 hstem
          392 102 vstem
          494 220 rmoveto
          110 -59 77 -113 25 vhcurveto
          78 48 51 76 123 vvcurveto
          21 -386 -94 292 vlineto
          -28 -79 -67 -61 -81 -25 rrcurveto
          -94 56 vlineto
          95 60 -36 -91 -104 -55 -38 -82 -82 -53 47 75 -14 hvcurveto
          -74 -73 rlineto
          -90 22 81 -47 123 hhcurveto
          140 96 83 147 hvcurveto
          endchar
        </CharString>
        <CharString name="threequarters">
          144 -363 88 133 88 313 88 44 40 60 39 142 40 hstem
          59 43 -21 94 65 43 -43 110 131 94 -94 242 vstem
          287 476 rmoveto
          51 -24 32 -49 13 vhcurveto
          39 31 19 39 48 vvcurveto
          10 -195 -63 127 vlineto
          -16 -28 -24 -19 -32 -11 rrcurveto
          -51 26 vlineto
          43 22 -17 -35 -33 -19 -17 -38 -28 -23 17 24 -7 hvcurveto
          -53 -26 rlineto
          -43 11 45 -29 56 hhcurveto
          68 52 42 65 hvcurveto
          141 -258 rmoveto
          -32 -39 -10 -14 -15 -29 rrcurveto
          -7 -15 -3 -14 -13 vvcurveto
          -20 153 -72 66 72 41 51 -41 197 -66 vlineto
          -85 vmoveto
          -112 -82 vlineto
          6 17 16 24 25 29 rrcurveto
          -14 505 rmoveto
          -331 -700 rlineto
          83 hlineto
          329 700 rlineto
          endchar
        </CharString>
        <CharString name="threesuperior">
          -250 391 40 60 39 142 40 hstem
          26 43 138 43 -43 110 vstem
          254 476 rmoveto
          51 -24 32 -49 13 vhcurveto
          39 31 19 39 48 vvcurveto
          10 -195 -63 127 vlineto
          -16 -28 -24 -19 -32 -11 rrcurveto
          -51 26 vlineto
          43 22 -17 -35 -33 -19 -17 -38 -28 -23 17 24 -7 hvcurveto
          -53 -26 rlineto
          -43 11 45 -29 56 hhcurveto
          68 52 42 65 hvcurveto
          endchar
        </CharString>
        <CharString name="tilde">
          -104 561 68 -28 68 hstemhm
          342 51 hintmask 10100000
          342 676 rmoveto
          -24 -19 -23 -30 -25 -26 12 9 -21 vhcurveto
          hintmask 01100000
          12 -32 -22 7 -27 hhcurveto
          -76 -26 -65 -50 -3 hvcurveto
          51 hlineto
          31 5 19 16 24 hhcurveto
          16 17 -7 -9 25 hvcurveto
          hintmask 10100000
          -9 19 49 -15 25 hhcurveto
          58 47 51 64 3 hvcurveto
          endchar
        </CharString>
        <CharString name="two">
          0 0 94 524 91 hstem
          371 101 vstem
          472 511 rmoveto
          125 -84 73 -140 -113 -62 -62 -75 -41 vhcurveto
          74 -62 rlineto
          64 31 46 44 68 hhcurveto
          82 38 -48 -54 -60 -22 -45 -57 -44 hvcurveto
          -111 -86 -139 -94 -143 vvcurveto
          -44 424 94 -323 vlineto
          32 71 94 68 100 78 rrcurveto
          67 57 36 48 95 vvcurveto
          endchar
        </CharString>
        <CharString name="twosuperior">
          -241 -10 88 313 88 133 88 hstem
          -373 242 -94 94 306 94 vstem
          258 443 rmoveto
          -134 hlineto
          29 27 17 15 15 14 13 13 rlinecurve
          41 41 12 19 35 vvcurveto
          61 -38 42 -64 -51 -39 -21 -42 -27 vhcurveto
          56 -33 rlineto
          25 12 19 12 26 hhcurveto
          28 13 -18 -24 -27 -3 -10 -27 -24 hvcurveto
          -63 -57 -10 -9 -11 -14 -11 -17 rlinecurve
          -11 -17 -5 -17 -17 vvcurveto
          -20 213 vlineto
          endchar
        </CharString>
        <CharString name="u">
          -9 0 84 396 -20 hstem
          60 88 222 88 vstem
          458 hmoveto
          480 -88 -396 -114 vlineto
          -104 -4 82 44 hvcurveto
          270 -88 -271 vlineto
          -70 3 -63 63 -43 vhcurveto
          -31 45 63 -2 51 hhcurveto
          endchar
        </CharString>
        <CharString name="uacute">
          -9 0 84 396 -20 hstem
          60 88 222 88 vstem
          458 hmoveto
          480 -88 -396 -114 vlineto
          -104 -4 82 44 hvcurveto
          270 -88 -271 vlineto
          -70 3 -63 63 -43 vhcurveto
          -31 45 63 -2 51 hhcurveto
          -22 525 rmoveto
          128 128 -62 62 -118 -148 rlineto
          endchar
        </CharString>
        <CharString name="ucircumflex">
          -9 0 84 396 -20 98 142 -48 48 hstemhm
          60 88 222 88 hintmask 11101100
          458 hmoveto
          480 -88 -396 -114 vlineto
          -104 -4 82 44 hvcurveto
          270 -88 -271 vlineto
          -70 3 -63 63 -43 vhcurveto
          -31 45 63 -2 51 hhcurveto
          hintmask 11011100
          -24 652 rmoveto
          hintmask 11101100
          80 -94 rlineto
          81 hlineto
          -110 142 rlineto
          -101 hlineto
          -110 -142 rlineto
          81 hlineto
          endchar
        </CharString>
        <CharString name="udieresis">
          -9 0 84 396 -20 108 112 hstemhm
          60 88 -33 112 68 112 -37 88 hintmask 11110010
          458 hmoveto
          480 -88 -396 -114 vlineto
          -104 -4 82 44 hvcurveto
          270 -88 -271 vlineto
          -70 3 -63 63 -43 vhcurveto
          -31 45 63 -2 51 hhcurveto
          hintmask 11101100
          -170 624 rmoveto
          -32 24 -24 32 32 24 24 32 32 -24 24 -32 -32 -24 -24 -32 vhcurveto
          180 hmoveto
          -32 24 -24 32 32 24 24 32 32 -24 24 -32 -32 -24 -24 -32 vhcurveto
          endchar
        </CharString>
        <CharString name="ugrave">
          -9 0 84 396 -20 hstem
          60 88 222 88 vstem
          458 hmoveto
          480 -88 -396 -114 vlineto
          -104 -4 82 44 hvcurveto
          270 -88 -271 vlineto
          -70 3 -63 63 -43 vhcurveto
          -31 45 63 -2 51 hhcurveto
          16 567 rmoveto
          -118 148 -62 -62 128 -128 rlineto
          endchar
        </CharString>
        <CharString name="underscore">
          34 -125 70 hstem
          33 500 vstem
          533 -125 rmoveto
          70 -500 -70 vlineto
          endchar
        </CharString>
        <CharString name="uni00AD">
          -242 200 80 hstem
          33 224 vstem
          257 200 rmoveto
          80 -224 -80 vlineto
          endchar
        </CharString>
        <CharString name="v">
          -68 10 -21 491 -20 hstem
          25 414 vstem
          232 -11 rmoveto
          116 109 39 101 52 281 rrcurveto
          -92 hlineto
          -20 -125 -32 -138 -63 -102 -63 102 -32 138 -20 125 rrcurveto
          -92 hlineto
          52 -281 39 -101 116 -109 rrcurveto
          endchar
        </CharString>
        <CharString name="w">
          148 11 -21 286 127 77 -20 hstem
          38 89 165 96 164 89 vstem
          481 -10 rmoveto
          93 45 55 124 9 174 7 147 rcurveline
          -89 hlineto
          -8 -143 -6 -114 -27 -82 -32 -42 rlinecurve
          -75 83 -10 145 -10 76 rrcurveto
          -96 hlineto
          -10 -76 -10 -145 -75 -83 -32 42 -27 82 -6 114 -8 143 rcurveline
          -89 hlineto
          7 -147 9 -174 55 -124 93 -45 rlinecurve
          104 81 17 66 15 139 rrcurveto
          10 hlineto
          15 -139 17 -66 104 -81 rrcurveto
          endchar
        </CharString>
        <CharString name="x">
          -67 21 -21 480 -20 hstem
          35 88 214 88 vstem
          337 480 rmoveto
          -14 vlineto
          -73 -34 -64 -73 -34 vhcurveto
          -72 36 -35 68 73 vvcurveto
          8 -88 -8 vlineto
          -86 36 -82 72 -54 vhcurveto
          -72 -53 -36 -82 -85 vvcurveto
          -30 88 30 vlineto
          73 35 68 72 35 vhcurveto
          73 -33 34 -65 -72 vvcurveto
          -36 88 36 vlineto
          83 -37 79 -71 52 vhcurveto
          71 53 37 79 84 vvcurveto
          14 vlineto
          endchar
        </CharString>
        <CharString name="y">
          -34 -228 84 144 84 396 -20 hstem
          45 88 222 88 vstem
          45 480 rmoveto
          -247 vlineto
          -193 57 -40 169 vhcurveto
          84 hlineto
          -100 -6 -68 -44 -118 hhcurveto
          -63 -84 72 hlineto
          190 81 88 164 hvcurveto
          456 -88 -396 -105 vlineto
          -91 -26 38 107 hvcurveto
          251 vlineto
          endchar
        </CharString>
        <CharString name="yacute">
          -34 -228 84 144 84 396 -20 hstem
          45 88 222 88 vstem
          45 480 rmoveto
          -247 vlineto
          -193 57 -40 169 vhcurveto
          84 hlineto
          -100 -6 -68 -44 -118 hhcurveto
          -63 -84 72 hlineto
          190 81 88 164 hvcurveto
          456 -88 -396 -105 vlineto
          -91 -26 38 107 hvcurveto
          251 vlineto
          118 45 rmoveto
          128 128 -62 62 -118 -148 rlineto
          endchar
        </CharString>
        <CharString name="ydieresis">
          -34 -228 84 144 84 396 -20 108 112 hstemhm
          45 88 -27 112 68 112 -43 88 hintmask 11111001
          45 480 rmoveto
          -247 vlineto
          -193 57 -40 169 vhcurveto
          84 hlineto
          -100 -6 -68 -44 -118 hhcurveto
          -63 -84 72 hlineto
          190 81 88 164 hvcurveto
          456 -88 -396 -105 vlineto
          -91 -26 38 107 hvcurveto
          251 vlineto
          hintmask 11110110
          -27 144 rmoveto
          -32 24 -24 32 32 24 24 32 32 -24 24 -32 -32 -24 -24 -32 vhcurveto
          180 hmoveto
          -32 24 -24 32 32 24 24 32 32 -24 24 -32 -32 -24 -24 -32 vhcurveto
          endchar
        </CharString>
        <CharString name="yen">
          11 0 210 -78 78 50 78 362 -20 hstemhm
          45 96 85 94 84 94 hintmask 01111110
          491 210 rmoveto
          -171 50 171 78 -95 hlineto
          68 80 34 113 119 vvcurveto
          50 -94 -50 vlineto
          -124 -30 -106 -101 -67 vhcurveto
          -104 66 -28 106 125 vvcurveto
          50 -96 -59 vlineto
          -116 34 -109 67 -78 vhcurveto
          -95 -78 175 -50 -175 -78 175 hlineto
          hintmask 10111110
          -132 94 vlineto
          hintmask 01111110
          132 171 vlineto
          endchar
        </CharString>
        <CharString name="z">
          -106 0 88 304 88 hstem
          35 356 vstem
          35 hmoveto
          356 88 -261 hlineto
          48 115 206 72 156 vvcurveto
          49 -348 -88 246 vlineto
          -42 -108 -205 -71 -173 vvcurveto
          endchar
        </CharString>
        <CharString name="zero">
          60 -10 88 550 82 hstem
          55 96 290 96 vstem
          296 78 rmoveto
          -110 -35 54 221 221 35 54 110 110 35 -54 -221 -221 -35 -54 -110 hvcurveto
          -241 275 rmoveto
          -175 28 -188 213 213 28 188 175 175 -28 182 -213 -213 -28 -182 -175 vhcurveto
          endchar
        </CharString>
</ttFont>
